<svg width="500" height="500" viewBox="0 0 500 500" fill="none" xmlns="http://www.w3.org/2000/svg">
<path d="M500 499.425C500 499.63 388.057 499.78 250.006 499.78C111.955 499.78 0 499.63 0 499.425C0 499.22 111.906 499.069 250.006 499.069C388.106 499.069 500 499.233 500 499.425Z" fill="#263238"/>
<path d="M187.685 356.443L184.773 497.019H179.219L179.574 356.799L187.685 356.443Z" fill="#263238"/>
<path d="M207.725 354.885L234.701 497.019H240.892L218.43 354.885H207.725Z" fill="#263238"/>
<path d="M157.148 356.443L127.285 497.019H121.106L148.193 355.869L157.148 356.443Z" fill="#263238"/>
<path d="M234.787 221.649C234.787 221.649 264.589 219.749 261.604 258.265C258.619 296.782 256.918 335.777 245.859 349.09C234.799 362.402 123.272 362.881 113.913 351.946C104.554 341.012 131.787 341.49 136.901 341.49C142.015 341.49 173.506 344.88 183.709 314.81C193.912 284.74 191.38 219.749 234.787 221.649Z" fill="#455A64"/>
<path d="M236.708 221.676C236.708 221.676 259.475 226.883 257.347 253.509C255.218 280.134 249.26 326.742 238.2 338.634C227.14 350.525 183.819 353.081 160.305 351.468C133.059 349.568 115.87 343.773 115.87 343.773C115.87 343.773 110.903 347.34 112.408 349.65C113.913 351.96 127.187 361.2 191.576 359.655C255.964 358.111 251.523 347.504 254.154 335.914C256.784 324.323 262.436 262.502 261.665 248.916C260.895 235.33 254.777 224.054 236.708 221.676Z" fill="#263238"/>
<path d="M218.075 273.519C218.192 274.036 218.437 274.506 218.781 274.875C219.126 275.244 219.557 275.497 220.024 275.605C220.491 275.714 220.977 275.673 221.424 275.488C221.872 275.303 222.264 274.981 222.556 274.559C222.848 274.137 223.027 273.632 223.074 273.101C223.121 272.571 223.034 272.036 222.821 271.558C222.609 271.08 222.281 270.679 221.874 270.4C221.468 270.12 220.999 269.975 220.522 269.979C219.782 270.098 219.113 270.534 218.656 271.195C218.199 271.856 217.991 272.689 218.075 273.519Z" fill="#263238"/>
<path d="M219.702 257.924C219.229 259.591 218.946 261.317 218.858 263.063C218.849 264.932 219.221 266.778 219.947 268.462C220.366 269.457 220.915 270.378 221.574 271.195C221.982 271.62 222.362 272.076 222.712 272.562C222.907 272.865 223.044 273.209 223.116 273.573C223.187 273.938 223.191 274.315 223.128 274.681C222.797 275.866 222.388 277.021 221.904 278.139C221.631 279.176 221.507 280.256 221.537 281.337C221.566 283.205 221.985 285.04 222.761 286.695C223.557 288.194 224.524 289.572 225.636 290.795C225.636 290.795 225.195 290.618 224.534 290.03C223.622 289.179 222.845 288.162 222.234 287.023C221.32 285.306 220.803 283.361 220.73 281.364C220.688 280.17 220.812 278.976 221.097 277.824C221.564 276.75 221.972 275.646 222.32 274.517C222.553 273.464 221.782 272.712 220.999 271.783C220.29 270.895 219.708 269.89 219.274 268.803C218.526 266.991 218.189 265 218.295 263.008C218.353 261.682 218.618 260.378 219.078 259.154C219.384 258.32 219.653 257.896 219.702 257.924Z" fill="#263238"/>
<path d="M212.949 268.94C213.083 268.94 212.949 269.774 213.291 270.949C213.713 272.466 214.573 273.784 215.738 274.694C216.966 275.557 218.348 276.107 219.788 276.307C220.901 276.485 221.623 276.512 221.635 276.663C221.647 276.813 220.925 276.991 219.739 276.977C218.148 276.969 216.592 276.447 215.261 275.473C214.589 274.975 214.014 274.331 213.568 273.58C213.123 272.828 212.817 271.985 212.667 271.1C212.521 269.706 212.863 268.913 212.949 268.94Z" fill="#263238"/>
<path d="M433.421 278.672H65.4163V289.661H85.1012L74.9468 498.181L80.55 498.523L90.7167 289.661H413.357L422.007 498.345H427.622L418.973 289.661H433.421V278.672Z" fill="#263238"/>
<path d="M91.047 179.715L97.7881 259.468C97.9194 261.058 98.5785 262.536 99.6357 263.611C100.693 264.686 102.072 265.28 103.501 265.277H205.902C207.424 265.277 208.883 264.602 209.959 263.4C211.035 262.197 211.64 260.567 211.64 258.867V173.318C211.639 172.45 211.48 171.591 211.174 170.793C210.868 169.995 210.42 169.274 209.857 168.675C209.294 168.076 208.629 167.61 207.901 167.307C207.173 167.003 206.397 166.867 205.62 166.908L96.4912 172.662C95.7124 172.704 94.9493 172.923 94.2485 173.305C93.5476 173.687 92.9236 174.224 92.4144 174.883C91.9051 175.543 91.5213 176.312 91.2862 177.142C91.0512 177.973 90.9698 178.848 91.047 179.715Z" fill="#263238"/>
<path d="M173.714 200.982C173.716 202.902 173.209 204.78 172.256 206.378C171.303 207.975 169.947 209.221 168.36 209.958C166.773 210.694 165.026 210.889 163.34 210.516C161.654 210.143 160.105 209.22 158.889 207.863C157.673 206.506 156.845 204.777 156.509 202.894C156.173 201.012 156.344 199.06 157.001 197.286C157.658 195.512 158.771 193.995 160.2 192.928C161.629 191.861 163.309 191.292 165.027 191.292C167.329 191.292 169.536 192.312 171.165 194.129C172.794 195.946 173.71 198.411 173.714 200.982Z" fill="white"/>
<path d="M165.027 193.164C163.641 193.167 162.287 193.629 161.136 194.491C159.985 195.353 159.088 196.577 158.559 198.008C158.031 199.44 157.894 201.014 158.165 202.532C158.437 204.051 159.106 205.445 160.087 206.539C161.068 207.633 162.317 208.377 163.676 208.678C165.036 208.98 166.445 208.824 167.725 208.23C169.005 207.637 170.099 206.633 170.869 205.346C171.639 204.058 172.05 202.545 172.05 200.996C172.046 198.918 171.305 196.926 169.989 195.457C168.672 193.989 166.888 193.164 165.027 193.164ZM167.327 197.606C167.511 197.609 167.689 197.672 167.84 197.788C167.992 197.904 168.109 198.067 168.178 198.257C168.246 198.447 168.263 198.656 168.225 198.856C168.188 199.057 168.099 199.241 167.968 199.384C167.838 199.528 167.672 199.626 167.492 199.665C167.312 199.704 167.126 199.683 166.956 199.604C166.787 199.525 166.643 199.391 166.541 199.221C166.44 199.05 166.385 198.85 166.385 198.645C166.384 198.506 166.407 198.369 166.454 198.24C166.5 198.112 166.57 197.995 166.658 197.897C166.745 197.799 166.85 197.721 166.965 197.669C167.08 197.617 167.203 197.591 167.327 197.593V197.606ZM161.993 197.606C162.177 197.606 162.357 197.667 162.51 197.782C162.663 197.896 162.782 198.058 162.852 198.248C162.923 198.438 162.941 198.646 162.905 198.848C162.869 199.049 162.781 199.234 162.651 199.38C162.521 199.525 162.355 199.624 162.175 199.664C161.994 199.704 161.807 199.684 161.637 199.605C161.467 199.526 161.322 199.393 161.22 199.222C161.118 199.052 161.063 198.851 161.063 198.645C161.062 198.508 161.085 198.371 161.131 198.244C161.177 198.116 161.245 198 161.331 197.902C161.418 197.804 161.521 197.726 161.635 197.673C161.748 197.62 161.87 197.593 161.993 197.593V197.606ZM169.334 203.005C169.047 203.823 168.559 204.534 167.927 205.056C167.107 205.737 166.121 206.123 165.101 206.163C164.078 206.192 163.072 205.862 162.226 205.22C161.568 204.737 161.043 204.06 160.709 203.265C160.468 202.724 160.395 202.108 160.501 201.516C160.533 201.333 160.607 201.162 160.713 201.019C160.82 200.876 160.957 200.765 161.112 200.695C161.764 200.607 162.425 200.706 163.033 200.982C163.666 201.183 164.321 201.28 164.978 201.269C165.637 201.241 166.289 201.103 166.911 200.859C167.505 200.556 168.157 200.425 168.808 200.477C168.967 200.535 169.111 200.636 169.227 200.772C169.342 200.908 169.425 201.075 169.468 201.256C169.606 201.831 169.571 202.44 169.37 202.992L169.334 203.005Z" fill="#FF725E"/>
<path d="M146.113 246.948C146.113 246.948 141.538 277.387 146.835 278.904H166.41C166.41 278.904 159.375 254.999 162.177 245.253L146.113 246.948Z" fill="#263238"/>
<path d="M156.365 226.883C155.494 227.856 154.385 228.518 153.177 228.787C151.969 229.055 150.717 228.917 149.579 228.39C148.442 227.863 147.469 226.972 146.785 225.828C146.101 224.684 145.736 223.339 145.736 221.963C145.736 220.587 146.101 219.242 146.785 218.098C147.469 216.954 148.442 216.062 149.579 215.536C150.717 215.009 151.969 214.871 153.177 215.139C154.385 215.408 155.494 216.07 156.365 217.042C156.944 217.688 157.403 218.456 157.716 219.3C158.029 220.144 158.19 221.049 158.19 221.963C158.19 222.877 158.029 223.782 157.716 224.626C157.403 225.47 156.944 226.237 156.365 226.883Z" fill="white"/>
<path d="M393.856 210.933C393.856 210.933 391.923 193.725 393.452 193.725C394.982 193.725 395.899 210.933 395.899 210.933H393.342" fill="#263238"/>
<path d="M398.896 210.933C398.896 210.933 396.951 193.725 398.48 193.725C400.01 193.725 400.927 210.933 400.927 210.933H398.383" fill="#455A64"/>
<path d="M406.58 210.933C406.58 210.933 404.647 193.725 406.176 193.725C407.705 193.725 408.623 210.933 408.623 210.933H406.066" fill="#455A64"/>
<path d="M402.077 211.89C402.077 211.89 402.077 194.558 403.607 194.777C405.136 194.996 404.108 212.177 404.108 212.177L401.576 211.821" fill="#263238"/>
<path d="M397.379 210.933C397.379 210.933 395.434 193.725 396.963 193.725C398.493 193.725 399.41 210.933 399.41 210.933H396.866" fill="#263238"/>
<path d="M393.501 237.654L390.981 210.974H411.522V237.011L393.501 237.654Z" fill="#263238"/>
<path d="M384.582 278.918L383.298 263.883L430.828 263.979L433.421 278.726L384.582 278.918Z" fill="#455A64"/>
<path d="M377.89 265.154L376.74 250.106L424.27 250.762L426.485 264.102L377.89 265.154Z" fill="#455A64"/>
<path d="M394.096 269.701L394.091 272.421L423.82 272.485L423.825 269.765L394.096 269.701Z" fill="#263238"/>
<path d="M376.899 252.156L377.633 262.311L423.866 261.792L422.398 252.497L376.899 252.156Z" fill="white"/>
<path d="M419.939 256.653C419.389 256.743 418.832 256.779 418.275 256.762H413.724C409.883 256.762 404.585 256.68 398.725 256.571C392.865 256.461 387.568 256.324 383.726 256.188L379.187 255.983C378.629 255.988 378.072 255.933 377.523 255.819C378.073 255.719 378.631 255.682 379.187 255.709H383.726C387.568 255.709 392.877 255.778 398.737 255.887C404.598 255.996 409.895 256.147 413.737 256.283L418.275 256.475C418.834 256.469 419.392 256.528 419.939 256.653Z" fill="#455A64"/>
<path d="M419.939 257.937C419.385 258.042 418.825 258.097 418.263 258.101L413.688 258.279C409.822 258.402 404.475 258.539 398.578 258.634C392.681 258.73 387.335 258.771 383.469 258.757H378.894C378.328 258.785 377.762 258.744 377.205 258.634C377.763 258.529 378.328 258.474 378.894 258.47L383.469 258.293C387.335 258.156 392.669 258.033 398.578 257.937C404.487 257.842 409.809 257.801 413.675 257.801H418.263C418.825 257.777 419.387 257.823 419.939 257.937Z" fill="#455A64"/>
<path d="M381.732 251.322L380.582 236.273L428.112 236.929L430.326 250.27L381.732 251.322Z" fill="#455A64"/>
<path d="M380.741 238.324L381.475 248.479L427.708 247.96L426.24 238.665L380.741 238.324Z" fill="white"/>
<path d="M423.805 242.82C423.255 242.91 422.698 242.942 422.141 242.916H417.59C413.749 242.916 408.451 242.848 402.591 242.738C396.731 242.629 391.434 242.492 387.604 242.356L383.053 242.151C382.495 242.156 381.938 242.101 381.389 241.987C381.939 241.887 382.497 241.85 383.053 241.877H387.604C391.434 241.877 396.743 241.946 402.603 242.055C408.464 242.164 413.761 242.315 417.603 242.451L422.141 242.643C422.7 242.637 423.258 242.696 423.805 242.82Z" fill="#455A64"/>
<path d="M423.805 244.092C423.254 244.215 422.692 244.275 422.129 244.269L417.554 244.447C413.688 244.57 408.341 244.707 402.444 244.789C396.548 244.871 391.201 244.939 387.335 244.925H382.76C382.199 244.962 381.636 244.925 381.083 244.816C381.637 244.71 382.198 244.655 382.76 244.652L387.335 244.474C391.201 244.338 396.548 244.215 402.444 244.119C408.341 244.023 413.688 243.982 417.554 243.982H422.129C422.69 243.964 423.251 244.001 423.805 244.092Z" fill="#455A64"/>
<path d="M340.992 216.728C341.102 216.728 340.295 218.724 339.573 222.031C339.128 223.928 339.103 225.917 339.499 227.827C339.781 228.926 340.269 229.947 340.931 230.82C341.704 231.787 342.354 232.867 342.864 234.032C343.078 234.681 343.154 235.377 343.086 236.065C343.018 236.753 342.808 237.414 342.472 237.996C341.878 238.995 341.219 239.945 340.503 240.839C339.323 242.291 338.665 244.18 338.655 246.142C338.636 247.468 338.9 248.78 339.426 249.969C339.805 250.816 340.111 251.226 340.062 251.267C339.708 250.95 339.417 250.554 339.206 250.106C338.577 248.905 338.232 247.546 338.203 246.155C338.152 244.057 338.806 242.014 340.038 240.428C340.727 239.572 341.357 238.658 341.922 237.695C342.214 237.208 342.397 236.65 342.457 236.067C342.516 235.484 342.45 234.894 342.264 234.346C341.767 233.244 341.137 232.223 340.392 231.312C339.688 230.361 339.175 229.251 338.888 228.059C338.507 226 338.612 223.867 339.193 221.867C339.506 220.552 339.916 219.267 340.417 218.027C340.559 217.569 340.753 217.132 340.992 216.728Z" fill="#455A64"/>
<path d="M346.791 216.769C346.913 216.769 346.094 218.778 345.384 222.072C344.935 223.968 344.906 225.957 345.298 227.868C345.58 228.967 346.068 229.988 346.73 230.861C347.524 231.821 348.191 232.902 348.712 234.073C348.928 234.722 349.006 235.418 348.938 236.107C348.87 236.795 348.658 237.456 348.32 238.037C347.726 239.036 347.067 239.986 346.351 240.88C345.17 242.332 344.513 244.221 344.503 246.183C344.483 247.509 344.748 248.821 345.274 250.01C345.653 250.857 345.959 251.267 345.922 251.377C345.561 251.068 345.268 250.67 345.066 250.215C344.421 249.021 344.071 247.658 344.05 246.265C344 244.167 344.654 242.123 345.886 240.538C346.575 239.679 347.209 238.765 347.782 237.804C348.069 237.315 348.249 236.756 348.306 236.174C348.364 235.592 348.297 235.003 348.112 234.456C347.615 233.353 346.985 232.332 346.24 231.421C345.536 230.47 345.023 229.361 344.736 228.168C344.346 226.149 344.417 224.053 344.944 222.072C345.25 220.754 345.659 219.469 346.167 218.232C346.31 217.713 346.52 217.22 346.791 216.769Z" fill="#455A64"/>
<path d="M362.438 260.944C361.014 259.757 359.256 259.18 357.484 259.318C357.484 258.252 357.484 257.596 357.484 257.596L330.385 257.404C330.385 257.404 329.418 277.373 343.096 278.166C349.213 278.535 352.737 275.432 354.768 271.646C355.773 271.92 356.803 272.066 357.838 272.084C359.356 272.147 360.851 271.669 362.108 270.717C362.795 270.116 363.342 269.339 363.702 268.451C364.062 267.564 364.225 266.592 364.176 265.619C364.218 264.744 364.084 263.87 363.783 263.061C363.482 262.252 363.023 261.528 362.438 260.944ZM360.53 268.339C359.368 269.295 357.3 269.131 355.954 268.858C356.647 266.742 357.103 264.538 357.312 262.297C358.497 262.152 359.691 262.471 360.689 263.199C360.978 263.509 361.202 263.887 361.344 264.306C361.485 264.724 361.542 265.173 361.509 265.619C361.553 266.127 361.488 266.639 361.318 267.113C361.147 267.586 360.877 268.007 360.53 268.339Z" fill="#FF725E"/>
<path d="M346.84 264.908L344.589 268.339L347.39 270.635C346.945 271.312 346.33 271.827 345.623 272.114C344.916 272.402 344.149 272.448 343.418 272.248C342.687 272.048 342.026 271.611 341.518 270.991C341.01 270.371 340.677 269.597 340.563 268.766C340.448 267.936 340.557 267.086 340.875 266.324C341.192 265.562 341.705 264.923 342.348 264.486C342.991 264.05 343.735 263.836 344.487 263.873C345.239 263.909 345.964 264.193 346.571 264.689" fill="#FF725E"/>
<path opacity="0.2" d="M346.84 264.908L344.589 268.339L347.39 270.635C346.945 271.312 346.33 271.827 345.623 272.114C344.916 272.402 344.149 272.448 343.418 272.248C342.687 272.048 342.026 271.611 341.518 270.991C341.01 270.371 340.677 269.597 340.563 268.766C340.448 267.936 340.557 267.086 340.875 266.324C341.192 265.562 341.705 264.923 342.348 264.486C342.991 264.05 343.735 263.836 344.487 263.873C345.239 263.909 345.964 264.193 346.571 264.689" fill="white"/>
<path d="M350.73 267.587C350.727 267.822 350.642 268.045 350.494 268.211C350.345 268.377 350.145 268.472 349.935 268.475C349.778 268.475 349.624 268.423 349.493 268.326C349.363 268.228 349.261 268.089 349.2 267.927C349.14 267.765 349.124 267.586 349.155 267.414C349.186 267.241 349.262 267.083 349.373 266.959C349.484 266.835 349.626 266.75 349.78 266.716C349.934 266.681 350.094 266.699 350.239 266.766C350.385 266.833 350.509 266.947 350.596 267.093C350.684 267.239 350.73 267.411 350.73 267.587Z" fill="#FF725E"/>
<path opacity="0.2" d="M350.73 267.587C350.727 267.822 350.642 268.045 350.494 268.211C350.345 268.377 350.145 268.472 349.935 268.475C349.778 268.475 349.624 268.423 349.493 268.326C349.363 268.228 349.261 268.089 349.2 267.927C349.14 267.765 349.124 267.586 349.155 267.414C349.186 267.241 349.262 267.083 349.373 266.959C349.484 266.835 349.626 266.75 349.78 266.716C349.934 266.681 350.094 266.699 350.239 266.766C350.385 266.833 350.509 266.947 350.596 267.093C350.684 267.239 350.73 267.411 350.73 267.587Z" fill="white"/>
<path d="M355.318 267.628C355.318 267.804 355.271 267.977 355.183 268.123C355.095 268.269 354.97 268.383 354.824 268.45C354.678 268.517 354.518 268.534 354.363 268.498C354.209 268.463 354.067 268.377 353.956 268.251C353.846 268.126 353.771 267.966 353.742 267.793C353.712 267.619 353.73 267.44 353.792 267.278C353.854 267.116 353.958 266.979 354.09 266.883C354.223 266.787 354.377 266.737 354.535 266.739C354.639 266.739 354.742 266.763 354.838 266.807C354.934 266.852 355.02 266.918 355.093 267.001C355.166 267.083 355.224 267.181 355.262 267.289C355.301 267.397 355.32 267.512 355.318 267.628Z" fill="#FF725E"/>
<path opacity="0.2" d="M355.318 267.628C355.318 267.804 355.271 267.977 355.183 268.123C355.095 268.269 354.97 268.383 354.824 268.45C354.678 268.517 354.518 268.534 354.363 268.498C354.209 268.463 354.067 268.377 353.956 268.251C353.846 268.126 353.771 267.966 353.742 267.793C353.712 267.619 353.73 267.44 353.792 267.278C353.854 267.116 353.958 266.979 354.09 266.883C354.223 266.787 354.377 266.737 354.535 266.739C354.639 266.739 354.742 266.763 354.838 266.807C354.934 266.852 355.02 266.918 355.093 267.001C355.166 267.083 355.224 267.181 355.262 267.289C355.301 267.397 355.32 267.512 355.318 267.628Z" fill="white"/>
<path d="M337.97 267.505C337.967 267.738 337.882 267.961 337.733 268.124C337.584 268.288 337.384 268.38 337.175 268.38C336.982 268.353 336.805 268.248 336.677 268.086C336.549 267.924 336.478 267.715 336.478 267.498C336.478 267.282 336.549 267.072 336.677 266.91C336.805 266.748 336.982 266.643 337.175 266.616C337.386 266.616 337.588 266.71 337.737 266.877C337.886 267.043 337.97 267.269 337.97 267.505Z" fill="#FF725E"/>
<path opacity="0.2" d="M337.97 267.505C337.967 267.738 337.882 267.961 337.733 268.124C337.584 268.288 337.384 268.38 337.175 268.38C336.982 268.353 336.805 268.248 336.677 268.086C336.549 267.924 336.478 267.715 336.478 267.498C336.478 267.282 336.549 267.072 336.677 266.91C336.805 266.748 336.982 266.643 337.175 266.616C337.386 266.616 337.588 266.71 337.737 266.877C337.886 267.043 337.97 267.269 337.97 267.505Z" fill="white"/>
<path d="M334.128 267.478C334.125 267.711 334.04 267.933 333.891 268.097C333.742 268.261 333.542 268.352 333.333 268.352C333.141 268.326 332.964 268.221 332.836 268.059C332.707 267.896 332.636 267.687 332.636 267.471C332.636 267.254 332.707 267.045 332.836 266.883C332.964 266.72 333.141 266.616 333.333 266.589C333.544 266.589 333.746 266.683 333.896 266.849C334.045 267.016 334.128 267.242 334.128 267.478Z" fill="#FF725E"/>
<path opacity="0.2" d="M334.128 267.478C334.125 267.711 334.04 267.933 333.891 268.097C333.742 268.261 333.542 268.352 333.333 268.352C333.141 268.326 332.964 268.221 332.836 268.059C332.707 267.896 332.636 267.687 332.636 267.471C332.636 267.254 332.707 267.045 332.836 266.883C332.964 266.72 333.141 266.616 333.333 266.589C333.544 266.589 333.746 266.683 333.896 266.849C334.045 267.016 334.128 267.242 334.128 267.478Z" fill="white"/>
<path d="M330.189 490.718L330.042 488.559L308.84 489.228L309.464 498.441H310.773C316.597 498.277 340.368 497.074 344.148 495.475C348.369 493.588 330.189 490.718 330.189 490.718Z" fill="#FF725E"/>
<path d="M317.074 497.566C316.624 495.612 315.538 493.916 314.028 492.809C312.553 491.699 310.759 491.245 309 491.538L309.464 498.099L317.074 497.566Z" fill="#F5F5F5"/>
<path d="M339.096 492.495C339.096 492.495 345.494 493.944 344.797 495.16C344.099 496.377 320.12 498.55 309.464 498.468V497.962L337.456 495.707C337.456 495.707 337.872 492.632 339.096 492.495Z" fill="#F5F5F5"/>
<path d="M309.134 497.962H309.501H310.541L314.37 497.812C317.6 497.648 322.066 497.361 326.996 496.923C331.926 496.486 336.367 495.967 339.585 495.557L343.39 495.037L344.417 494.873L344.785 494.805C344.663 494.784 344.539 494.784 344.417 494.805L343.378 494.914L339.561 495.338C336.343 495.707 331.902 496.185 326.972 496.623C322.041 497.06 317.588 497.375 314.358 497.593L310.541 497.839L309.501 497.921C309.378 497.926 309.255 497.94 309.134 497.962Z" fill="#263238"/>
<path d="M337.481 496.021C337.591 495.297 337.78 494.59 338.043 493.917C338.394 493.286 338.804 492.699 339.267 492.167C338.658 492.533 338.164 493.099 337.852 493.788C337.539 494.477 337.422 495.256 337.517 496.021H337.481Z" fill="#263238"/>
<path d="M331.033 493.069C331.094 493.069 331.364 492.673 331.621 492.112C331.877 491.552 332.061 491.046 332 491.019C331.939 490.992 331.669 491.402 331.4 491.976C331.131 492.55 330.96 493.028 331.033 493.069Z" fill="#263238"/>
<path d="M329.259 492.222C329.259 492.222 329.614 491.989 329.957 491.593C330.299 491.197 330.519 490.841 330.471 490.787C330.422 490.732 330.103 491.005 329.773 491.402C329.443 491.798 329.198 492.167 329.259 492.222Z" fill="#263238"/>
<path d="M328.024 490.103C328.387 490.186 328.761 490.186 329.125 490.103C329.736 490.103 330.226 489.953 330.214 489.871C329.851 489.78 329.475 489.78 329.113 489.871C328.501 489.912 328.011 490.021 328.024 490.103Z" fill="#263238"/>
<path d="M331.596 490.951C332.048 491.001 332.504 490.959 332.942 490.828C333.424 490.717 333.896 490.552 334.349 490.336C334.629 490.221 334.896 490.07 335.144 489.884C335.221 489.829 335.288 489.757 335.341 489.673C335.393 489.588 335.43 489.493 335.45 489.392C335.464 489.279 335.448 489.163 335.404 489.059C335.361 488.954 335.292 488.866 335.205 488.805C334.86 488.641 334.486 488.569 334.112 488.593C333.738 488.617 333.373 488.736 333.047 488.942C332.721 489.148 332.441 489.435 332.23 489.781C332.019 490.127 331.881 490.522 331.828 490.937C331.828 491.197 331.828 491.347 331.828 491.347C331.928 490.862 332.102 490.4 332.342 489.98C332.62 489.554 333.003 489.226 333.443 489.037C333.699 488.918 333.974 488.857 334.251 488.857C334.528 488.857 334.802 488.918 335.058 489.037C335.279 489.201 335.217 489.488 334.997 489.666C334.765 489.836 334.519 489.982 334.263 490.103C333.822 490.312 333.368 490.486 332.905 490.623C332.098 490.869 331.584 490.91 331.596 490.951Z" fill="#263238"/>
<path d="M331.951 490.992C332.085 490.661 332.111 490.289 332.024 489.939C331.956 489.549 331.805 489.184 331.584 488.873C331.449 488.653 331.266 488.475 331.051 488.358C330.837 488.241 330.599 488.187 330.36 488.203C330.227 488.251 330.114 488.354 330.046 488.491C329.977 488.628 329.959 488.789 329.993 488.941C330.045 489.176 330.141 489.395 330.275 489.584C330.477 489.904 330.715 490.194 330.984 490.445C331.211 490.696 331.488 490.883 331.792 490.992C331.572 490.744 331.339 490.511 331.094 490.294C330.863 490.034 330.655 489.75 330.471 489.447C330.263 489.133 330.091 488.572 330.471 488.477C330.85 488.381 331.18 488.75 331.413 489.037C331.621 489.312 331.776 489.634 331.865 489.98C331.918 490.314 331.947 490.652 331.951 490.992Z" fill="#263238"/>
<path d="M309.097 491.47C309.097 491.47 309.697 491.347 310.651 491.388C311.9 491.43 313.112 491.866 314.149 492.645C315.186 493.423 316.005 494.513 316.511 495.789C316.903 496.773 316.988 497.443 317.025 497.429C317.062 497.415 317.025 497.252 317.025 496.951C316.951 496.527 316.844 496.111 316.707 495.707C316.23 494.362 315.4 493.21 314.325 492.402C313.251 491.595 311.983 491.17 310.688 491.183C310.297 491.187 309.908 491.233 309.525 491.32C309.244 491.388 309.097 491.443 309.097 491.47Z" fill="#263238"/>
<path d="M319.545 495.037C320.57 495.206 321.61 495.229 322.641 495.106C323.678 495.073 324.707 494.885 325.699 494.545C325.699 494.463 324.317 494.682 322.628 494.819C320.94 494.955 319.619 494.955 319.545 495.037Z" fill="#263238"/>
<path d="M315.435 495.406C315.435 495.406 315.569 495.721 315.728 496.049C315.887 496.377 315.997 496.691 316.071 496.691C316.144 496.691 316.157 496.308 315.961 495.912C315.765 495.516 315.471 495.338 315.435 495.406Z" fill="#263238"/>
<path d="M313.722 493.383C313.722 493.383 313.832 493.67 314.064 493.903C314.297 494.135 314.529 494.258 314.578 494.204C314.627 494.149 314.468 493.917 314.236 493.684C314.003 493.452 313.771 493.329 313.722 493.383Z" fill="#263238"/>
<path d="M311.434 492.591C311.434 492.673 311.74 492.591 312.058 492.741C312.376 492.891 312.609 493.001 312.658 492.946C312.706 492.891 312.511 492.577 312.119 492.468C311.728 492.358 311.41 492.495 311.434 492.591Z" fill="#263238"/>
<path d="M309.831 492.276C309.831 492.345 309.942 492.454 310.125 492.522C310.309 492.591 310.468 492.522 310.48 492.522C310.492 492.522 310.37 492.331 310.198 492.276C310.027 492.222 309.831 492.194 309.831 492.276Z" fill="#263238"/>
<path d="M304.681 450.657L309.073 489.351L329.541 489.078L325.944 444.944L304.681 450.657Z" fill="#F0B191"/>
<path d="M308.84 489.228L307.446 474.207L328.158 472.048L329.541 489.078L308.84 489.228Z" fill="#F5F5F5"/>
<path d="M328.648 475.738C325.209 476.424 321.736 476.881 318.249 477.105C314.78 477.542 311.291 477.752 307.801 477.734C311.237 477.032 314.711 476.576 318.2 476.367C321.667 475.913 325.157 475.703 328.648 475.738Z" fill="#455A64"/>
<path d="M328.77 477.214C325.331 477.901 321.858 478.357 318.371 478.581C314.902 479.019 311.414 479.228 307.923 479.21C311.36 478.508 314.833 478.052 318.322 477.843C321.79 477.398 325.279 477.188 328.77 477.214Z" fill="#455A64"/>
<path d="M337.053 79.61L342.485 95.9023H342.582L360.554 135.758C365.277 145.586 363.258 161.974 349.103 167.359C337.787 171.664 314.089 159.5 314.089 159.5L316.952 136.373L340.001 144.014L330.984 101.588C330.984 101.588 330.226 100.085 328.378 95.6153L320.916 87.2231C320.916 87.2231 321.332 84.7628 324.965 88.3575C325.412 88.6681 325.938 88.809 326.462 88.7595C326.987 88.71 327.484 88.4726 327.878 88.0827C328.273 87.6927 328.544 87.171 328.652 86.595C328.759 86.0191 328.698 85.4197 328.476 84.8858C328.105 84.1612 327.552 83.5738 326.886 83.1959C326.22 82.818 325.469 82.6662 324.726 82.7592C323.984 82.8522 323.282 83.186 322.707 83.7193C322.132 84.2526 321.709 84.9622 321.491 85.7606C321.491 85.7606 320.059 86.444 319.533 85.2275C319.007 84.0111 321.393 79.6646 324.427 79.569C325.69 79.5587 326.941 79.8475 328.097 80.4164C328.097 80.4164 324.427 70.097 325.198 69.728C325.968 69.3589 327.192 69.6186 331.094 80.9768C331.094 80.9768 328.782 71.7372 328.648 70.507C328.513 69.2769 329.663 67.9921 330.679 70.8624L333.884 79.9653C333.884 79.9653 333.089 73.7054 333.052 73.1996C332.954 71.8328 334.092 71.5868 334.679 73.1996C335.144 74.3751 337.053 79.61 337.053 79.61Z" fill="#FFD7C3"/>
<path d="M252 228.141L252.282 211.739C252.282 211.739 235.925 204.823 234.701 204.044L246.214 174.781L225.99 168.466C225.99 168.466 210.502 210.222 213.56 215.512C218.099 223.357 239.252 226.665 248.134 227.731L244.244 236.779L240.096 241.877L241.32 244.611C241.32 244.611 252.428 237.777 252.159 237.777C251.89 237.777 251.976 232.938 251.976 228.209L252 228.141Z" fill="#FFD7C3"/>
<path d="M261.763 85.2549C261.702 83.1227 260.76 76.0426 260.699 73.9104C259.86 73.9288 259.027 73.7427 258.259 73.365C257.491 72.9873 256.806 72.4271 256.251 71.7235C255.697 71.0198 255.286 70.1896 255.048 69.2906C254.81 68.3916 254.75 67.4454 254.873 66.5179C254.995 65.5904 255.298 64.7039 255.758 63.9202C256.219 63.1364 256.826 62.4742 257.539 61.9796C258.252 61.4851 259.053 61.17 259.886 61.0565C260.719 60.9429 261.564 61.0336 262.363 61.3221C261.997 59.3004 262.25 57.1999 263.081 55.3581C263.912 53.5163 265.273 52.04 266.946 51.1665C268.619 50.2929 270.505 50.0727 272.303 50.5413C274.101 51.0098 275.706 52.1399 276.86 53.75C276.983 51.2624 279.393 49.7453 281.57 49.1575C283.392 48.5548 285.342 48.6462 287.112 49.4172C287.979 49.836 288.694 50.571 289.138 51.502C289.583 52.4331 289.731 53.5051 289.559 54.5428C290.349 53.4335 291.502 52.7203 292.762 52.5601C293.387 52.4808 294.019 52.5396 294.623 52.7332C295.227 52.9268 295.79 53.2514 296.282 53.6885C296.774 54.1256 297.183 54.6665 297.488 55.2805C297.792 55.8945 297.986 56.5695 298.057 57.2669C298.128 57.9643 298.075 58.6705 297.902 59.3452C297.728 60.0199 297.438 60.6499 297.047 61.1991C298.291 61.859 299.28 62.9976 299.834 64.4064C300.387 65.8152 300.468 67.3997 300.061 68.8694C299.653 70.3392 298.785 71.5956 297.616 72.4085C296.447 73.2214 295.055 73.5363 293.694 73.2953" fill="#263238"/>
<path d="M265.348 126.054L287.455 124.086C287.602 121.188 287.455 110.035 287.455 110.035C287.455 110.035 296.655 108.436 296.765 98.1576C296.875 87.8792 295.285 64.2881 295.285 64.2881C290.055 61.7762 284.32 60.87 278.672 61.6629C273.025 62.4558 267.669 64.9192 263.158 68.7985L261.8 69.974L265.348 126.054Z" fill="#FFD7C3"/>
<path d="M292.141 81.9472C291.876 81.6826 291.717 81.3115 291.697 80.9154C291.678 80.5194 291.8 80.131 292.037 79.8355C292.274 79.5401 292.606 79.3619 292.96 79.3401C293.315 79.3183 293.662 79.4547 293.927 79.7193C294.189 79.9881 294.345 80.3619 294.361 80.7589C294.377 81.1559 294.252 81.5438 294.013 81.8379C293.776 82.1276 293.447 82.3015 293.097 82.3219C292.746 82.3424 292.403 82.2078 292.141 81.9472Z" fill="#263238"/>
<path d="M295.358 79.5963C295.212 79.774 294.306 79.0086 293.046 78.9949C291.786 78.9812 290.856 79.7193 290.722 79.5416C290.587 79.3639 290.795 79.1316 291.199 78.8036C291.732 78.3702 292.374 78.1368 293.034 78.1368C293.693 78.1368 294.336 78.3702 294.869 78.8036C295.297 79.1999 295.432 79.528 295.358 79.5963Z" fill="#263238"/>
<path d="M279.98 80.8401C280.279 81.049 280.493 81.381 280.576 81.7645C280.658 82.148 280.602 82.5524 280.42 82.8903C280.231 83.2258 279.932 83.4651 279.586 83.5571C279.241 83.6491 278.877 83.5864 278.573 83.3824C278.424 83.2792 278.294 83.1441 278.191 82.9849C278.088 82.8256 278.015 82.6454 277.975 82.4543C277.934 82.2633 277.928 82.0653 277.956 81.8716C277.984 81.6779 278.046 81.4923 278.139 81.3253C278.231 81.1584 278.352 81.0134 278.495 80.8987C278.637 80.784 278.798 80.7018 278.969 80.6567C279.14 80.6116 279.318 80.6046 279.491 80.6361C279.664 80.6676 279.831 80.7369 279.98 80.8401Z" fill="#263238"/>
<path d="M281.595 80.8538C281.46 81.0315 280.555 80.2524 279.283 80.2387C278.01 80.225 277.093 80.9631 276.958 80.7854C276.824 80.6077 277.031 80.3891 277.435 80.0474C277.974 79.606 278.627 79.3754 279.295 79.3913C279.961 79.4018 280.607 79.6457 281.142 80.0884C281.534 80.4437 281.693 80.7718 281.595 80.8538Z" fill="#263238"/>
<path d="M286.672 92.5263C287.329 92.2383 288.023 92.072 288.727 92.0342C289.058 92.0342 289.315 91.9112 289.339 91.7199C289.354 91.3471 289.273 90.9773 289.107 90.6538C288.776 89.7244 288.446 88.7676 288.103 87.7835C287.159 85.3506 286.433 82.8186 285.938 80.225C287.101 82.5357 288.052 84.9719 288.776 87.4965C289.107 88.4942 289.413 89.451 289.731 90.3941C289.942 90.8726 290.002 91.4169 289.902 91.9386C289.856 92.0788 289.781 92.2051 289.683 92.3071C289.585 92.4092 289.467 92.4843 289.339 92.5263C289.155 92.5762 288.966 92.6037 288.776 92.6083C288.076 92.7171 287.364 92.6893 286.672 92.5263Z" fill="#263238"/>
<path d="M282.561 94.0845C284.237 94.6175 286.232 96.244 288.776 96.1073C288.345 96.8502 287.702 97.4084 286.952 97.6913C286.201 97.9742 285.387 97.9651 284.641 97.6655C281.888 96.5311 282.561 94.0845 282.561 94.0845Z" fill="white"/>
<path d="M287.944 97.1325C286.973 96.9142 286.026 96.5796 285.118 96.1347C284.181 95.7795 283.294 95.2729 282.488 94.6312C282.488 94.6312 283.711 95.2189 285.216 95.875C286.149 96.2266 287.061 96.6466 287.944 97.1325Z" fill="#E0E0E0"/>
<path d="M283.907 94.9456L283.528 95.5196L284.005 95.9297L284.47 95.2599L283.907 94.9456Z" fill="#E0E0E0"/>
<path d="M285.681 95.875L285.326 96.4627L285.816 96.8454L286.256 96.162L285.681 95.875Z" fill="#E0E0E0"/>
<path d="M287.345 96.4901L286.99 97.0778L287.48 97.4605L287.908 96.7771L287.345 96.4901Z" fill="#E0E0E0"/>
<path d="M287.431 109.885C283.185 109.978 279.011 108.655 275.441 106.085C275.441 106.085 278.267 113.479 287.455 112.55L287.431 109.885Z" fill="#F0B191"/>
<path d="M261.739 79.9107C261.531 79.9107 254.888 79.3366 255.989 88.0022C257.09 96.6677 264.553 92.5536 264.553 92.3076C264.553 92.0616 261.739 79.9107 261.739 79.9107Z" fill="#FFD7C3"/>
<path d="M261.775 89.6424C261.775 89.6424 261.653 89.7654 261.445 89.9294C261.14 90.135 260.776 90.1988 260.43 90.1071C259.884 89.8324 259.414 89.4001 259.068 88.8547C258.721 88.3093 258.512 87.6706 258.46 87.0044C258.343 86.263 258.376 85.5016 258.558 84.7765C258.592 84.4868 258.689 84.2108 258.84 83.9726C258.992 83.7343 259.193 83.5411 259.426 83.4097C259.576 83.3351 259.745 83.323 259.902 83.3757C260.059 83.4283 260.194 83.5423 260.283 83.6968C260.417 83.9154 260.393 84.1068 260.43 84.1068C260.466 84.1068 260.576 83.9428 260.43 83.5874C260.365 83.3788 260.235 83.2037 260.063 83.0954C259.823 82.9514 259.542 82.9171 259.28 82.9997C258.973 83.1206 258.7 83.3274 258.486 83.6002C258.271 83.873 258.124 84.2028 258.056 84.5578C257.823 85.3603 257.769 86.2141 257.897 87.0454C257.954 87.824 258.217 88.5659 258.653 89.1768C259.089 89.7878 259.677 90.24 260.344 90.4761C260.563 90.5123 260.787 90.4931 260.999 90.4197C261.211 90.3464 261.405 90.2209 261.567 90.0524C261.788 89.861 261.8 89.656 261.775 89.6424Z" fill="#F0B191"/>
<path d="M296.863 63.5227C296.636 62.568 296.222 61.6816 295.65 60.9276C295.079 60.1735 294.365 59.5707 293.56 59.1626C291.946 58.3671 290.227 57.8686 288.47 57.6864C282.292 56.7023 275.869 56.2376 269.899 58.2878C266.93 59.125 264.298 61.05 262.424 63.755C260.919 66.229 259.72 69.8237 260.784 72.4206L262.24 87.5375C263.147 87.64 264.061 87.64 264.969 87.5375V75.4686C265.748 75.5968 266.544 75.5456 267.305 75.3182C268.418 74.9598 269.417 74.2557 270.186 73.2879C270.955 72.32 271.462 71.1282 271.648 69.851C272.503 71.2067 273.723 72.2224 275.13 72.7502C276.537 73.2781 278.058 73.2906 279.472 72.7859C280.886 72.2812 282.119 71.2857 282.991 69.9442C283.864 68.6026 284.33 66.9851 284.323 65.3269C285.054 66.7881 286.118 68.0069 287.407 68.8593C288.697 69.7116 290.165 70.167 291.664 70.179C294.698 70.056 297.475 66.803 296.863 63.5227Z" fill="#263238"/>
<path d="M260.222 59.3812C260.075 59.5179 259.255 58.5885 258.044 57.8231C256.833 57.0577 255.707 56.716 255.744 56.4563C255.781 56.1966 257.029 56.2922 258.362 57.1533C259.696 58.0144 260.356 59.2856 260.222 59.3812Z" fill="#263238"/>
<path d="M260.564 57.8504C260.405 57.9461 259.745 56.6886 259.475 54.9528C259.211 53.9157 259.263 52.8099 259.622 51.8091C259.894 52.7903 260.058 53.8045 260.112 54.8298C260.36 55.8153 260.512 56.8282 260.564 57.8504Z" fill="#263238"/>
<path d="M267.33 83.4097C269.936 82.7536 272.126 82.2753 272.884 82.1932C272.772 81.6913 272.703 81.1788 272.676 80.6624C272.646 79.0437 273.075 77.4558 273.9 76.1246C274.662 74.8809 275.746 73.9271 277.007 73.391C278.14 72.9024 279.369 72.7608 280.567 72.981C281.605 73.1753 282.587 73.6439 283.43 74.3478C284.647 75.3555 285.512 76.8053 285.877 78.4482C285.98 78.8952 286.037 79.3537 286.048 79.815C286.069 79.9736 286.069 80.1348 286.048 80.2934C286.048 80.2934 286.048 79.6373 285.718 78.5302C285.283 76.9728 284.402 75.6184 283.21 74.6758C282.332 73.9795 281.311 73.5418 280.242 73.4032C279.173 73.2646 278.09 73.4297 277.093 73.8831C275.919 74.3916 274.912 75.288 274.205 76.4527C273.435 77.6951 273.036 79.1785 273.068 80.6898C273.131 82.178 273.601 83.6089 274.413 84.7902C274.933 85.5368 275.58 86.161 276.317 86.6267C277.054 87.0924 277.866 87.3904 278.707 87.5035C279.548 87.6166 280.4 87.5426 281.215 87.2857C282.03 87.0287 282.791 86.594 283.454 86.0066C284.601 84.9948 285.414 83.5861 285.767 82.0019C285.859 81.5517 285.925 81.0951 285.962 80.6351C285.754 80.6351 285.62 80.5394 285.62 80.4711C285.62 80.4027 285.767 80.3207 285.999 80.266C286.26 80.2004 286.527 80.1683 286.794 80.1704C287.122 80.1546 287.451 80.1821 287.773 80.2524C287.773 80.2524 287.773 80.2524 287.773 80.1704C287.742 78.5471 288.17 76.9543 288.997 75.6189C289.763 74.3793 290.846 73.4266 292.104 72.8853C293.237 72.3967 294.466 72.2551 295.664 72.4752C296.702 72.6696 297.684 73.1382 298.527 73.8421C299.744 74.8498 300.609 76.2996 300.974 77.9425C301.077 78.3895 301.134 78.848 301.145 79.3093C301.166 79.4679 301.166 79.6291 301.145 79.7877C301.145 79.7877 301.145 79.1316 300.803 78.0245C300.448 76.7116 299.768 75.5375 298.841 74.6378C297.915 73.7382 296.779 73.1495 295.566 72.94C294.438 72.7491 293.285 72.9002 292.226 73.3773C291.012 73.9216 289.977 74.8685 289.26 76.0904C288.542 77.3124 288.177 78.7506 288.214 80.2114C288.266 81.6997 288.732 83.1327 289.547 84.3118C290.306 85.4365 291.357 86.2719 292.557 86.7037C293.569 87.0917 294.653 87.1873 295.708 86.9818C296.762 86.7763 297.753 86.2763 298.588 85.5283C299.735 84.5164 300.548 83.1078 300.9 81.5235C301.133 80.4027 301.096 79.7467 301.145 79.7467C301.16 79.9011 301.16 80.0569 301.145 80.2114C301.155 80.6702 301.118 81.1287 301.035 81.5782C300.745 83.249 299.94 84.7532 298.759 85.829C297.949 86.5857 296.989 87.1153 295.958 87.3735C294.773 87.6629 293.54 87.5968 292.385 87.1821C291.108 86.7186 289.984 85.8404 289.156 84.6597C288.328 83.4789 287.834 82.0492 287.736 80.5531C287.413 80.6474 287.08 80.6979 286.745 80.7034C286.485 80.7268 286.223 80.7268 285.962 80.7034C285.972 81.1622 285.935 81.6207 285.852 82.0702C285.598 83.4798 284.983 84.7766 284.082 85.803C283.181 86.8294 282.032 87.5412 280.775 87.8518C279.065 88.2979 277.265 87.9747 275.766 86.9518C274.267 85.929 273.188 84.2885 272.762 82.3846C272.052 82.6716 269.887 83.3004 267.269 83.9564C265.351 84.5333 263.396 84.9401 261.421 85.1729C263.344 84.4071 265.321 83.8174 267.33 83.4097Z" fill="#263238"/>
<path d="M283.222 77.4368C282.953 78.3935 281.13 78.5986 279.087 78.8036C277.044 79.0086 275.196 79.0633 274.817 78.1612C274.646 77.7101 274.939 77.0677 275.661 76.48C276.601 75.7545 277.702 75.3334 278.842 75.2636C279.982 75.1357 281.13 75.3677 282.158 75.9333C282.916 76.3843 283.332 76.9857 283.222 77.4368Z" fill="#263238"/>
<path d="M296.949 76.0426C296.631 76.972 295.114 77.1907 293.511 77.4094C291.908 77.6281 290.342 77.6281 289.841 76.7533C289.645 76.316 289.841 75.7009 290.416 75.0995C291.189 74.3752 292.149 73.9444 293.156 73.8694C294.165 73.7499 295.183 73.984 296.068 74.5391C296.802 74.9902 297.083 75.6189 296.949 76.0426Z" fill="#263238"/>
<path d="M282.916 75.2362C283.063 75.1269 283.528 75.6873 283.821 76.603C284.115 77.5188 284.115 78.2295 283.944 78.2705C283.773 78.3115 283.503 77.6555 283.234 76.9037C282.965 76.152 282.782 75.3319 282.916 75.2362Z" fill="#263238"/>
<path d="M259.781 450.78L260.931 489.748L281.338 491.62L281.448 447.295L259.781 450.78Z" fill="#F0B191"/>
<path d="M260.711 489.597L260.576 474.508H281.387L281.338 491.62L260.711 489.597Z" fill="#F5F5F5"/>
<path d="M281.852 493.315V491.142L260.674 489.611L260.54 498.851L261.849 498.96C267.66 499.397 291.419 500.737 295.322 499.466C299.714 498.058 281.852 493.315 281.852 493.315Z" fill="#FF725E"/>
<path d="M268.235 498.769C267.944 496.779 267.008 494.979 265.605 493.712C264.229 492.457 262.484 491.823 260.711 491.935L260.625 498.509L268.235 498.769Z" fill="#F0F0F0"/>
<path d="M290.575 495.98C290.575 495.98 296.826 498.085 296.031 499.233C295.236 500.382 271.184 500.026 260.552 498.851V498.318L288.605 498.987C288.605 498.987 289.351 496.021 290.575 495.98Z" fill="#F0F0F0"/>
<path d="M260.295 498.304H260.65L261.69 498.386L265.519 498.632C268.749 498.81 273.227 498.987 278.157 499.056C283.087 499.124 287.577 499.056 290.807 499.056L294.636 498.933H295.689H296.043H294.636H290.807C287.577 498.933 283.1 498.933 278.169 498.933C273.239 498.933 268.761 498.714 265.531 498.591L261.702 498.441H260.65L260.295 498.304Z" fill="#263238"/>
<path d="M288.666 499.329C288.844 498.62 289.094 497.937 289.412 497.293C289.794 496.694 290.237 496.148 290.734 495.666C290.099 495.974 289.563 496.488 289.194 497.141C288.825 497.795 288.641 498.557 288.666 499.329Z" fill="#263238"/>
<path d="M282.488 495.734C282.549 495.734 282.855 495.379 283.173 494.846C283.491 494.313 283.687 493.835 283.626 493.794C283.565 493.753 283.271 494.149 282.953 494.682C282.731 494.991 282.573 495.35 282.488 495.734Z" fill="#263238"/>
<path d="M280.8 494.709C280.8 494.709 281.179 494.518 281.546 494.162C281.913 493.807 282.17 493.465 282.133 493.411C282.096 493.356 281.742 493.588 281.375 493.944C281.008 494.299 280.751 494.641 280.8 494.709Z" fill="#263238"/>
<path d="M279.747 492.495C280.099 492.643 280.474 492.704 280.849 492.673C281.219 492.726 281.596 492.684 281.95 492.55C281.597 492.41 281.222 492.354 280.849 492.386C280.479 492.328 280.102 492.365 279.747 492.495Z" fill="#263238"/>
<path d="M283.234 493.698C283.679 493.785 284.135 493.785 284.58 493.698C285.074 493.643 285.562 493.533 286.036 493.37C286.321 493.284 286.597 493.16 286.856 493.001C286.937 492.953 287.01 492.887 287.069 492.807C287.127 492.727 287.171 492.635 287.198 492.536C287.221 492.425 287.215 492.31 287.18 492.203C287.145 492.096 287.084 492.003 287.002 491.935C286.49 491.635 285.9 491.547 285.336 491.687C284.771 491.827 284.27 492.186 283.919 492.7C283.706 492.992 283.552 493.333 283.467 493.698C283.435 493.832 283.435 493.974 283.467 494.108C283.608 493.64 283.823 493.205 284.103 492.823C284.412 492.431 284.816 492.147 285.265 492.003C285.53 491.905 285.809 491.868 286.086 491.894C286.364 491.92 286.634 492.008 286.88 492.153C287.088 492.331 287.002 492.604 286.758 492.768C286.514 492.909 286.26 493.028 285.999 493.124C285.539 493.29 285.069 493.418 284.592 493.507C283.748 493.657 283.234 493.643 283.234 493.698Z" fill="#263238"/>
<path d="M283.577 493.78C283.667 493.626 283.729 493.454 283.758 493.273C283.788 493.092 283.784 492.907 283.748 492.727C283.715 492.331 283.593 491.95 283.393 491.62C283.281 491.392 283.119 491.2 282.922 491.061C282.725 490.922 282.5 490.842 282.268 490.828C282.131 490.861 282.011 490.952 281.933 491.082C281.856 491.212 281.826 491.371 281.852 491.525C281.88 491.763 281.955 491.992 282.072 492.194C282.243 492.533 282.452 492.846 282.696 493.124C282.908 493.394 283.171 493.609 283.467 493.753C283.467 493.753 283.197 493.479 282.83 492.987C282.618 492.705 282.433 492.398 282.28 492.071C282.096 491.743 281.974 491.169 282.28 491.115C282.586 491.06 282.953 491.456 283.161 491.771C283.345 492.065 283.471 492.401 283.528 492.755C283.578 493.093 283.594 493.437 283.577 493.78Z" fill="#263238"/>
<path d="M260.797 491.866C260.797 491.866 261.396 491.866 262.35 491.948C263.589 492.122 264.759 492.68 265.727 493.561C266.686 494.45 267.406 495.619 267.807 496.937C268.125 497.949 268.149 498.632 268.198 498.632C268.221 498.474 268.221 498.312 268.198 498.154C268.173 497.721 268.099 497.294 267.978 496.882C267.617 495.494 266.887 494.259 265.886 493.342C264.885 492.43 263.662 491.873 262.375 491.743C261.968 491.703 261.559 491.703 261.151 491.743C261.028 491.764 260.909 491.805 260.797 491.866Z" fill="#263238"/>
<path d="M270.902 496.5C271.905 496.788 272.938 496.922 273.973 496.896C275.005 496.963 276.041 496.885 277.056 496.664C277.056 496.568 275.674 496.664 273.973 496.664C272.272 496.664 270.914 496.418 270.902 496.5Z" fill="#263238"/>
<path d="M266.767 496.445C266.767 496.445 266.877 496.773 267.012 497.115C267.146 497.457 267.232 497.785 267.293 497.785C267.354 497.785 267.415 497.416 267.293 497.005C267.171 496.595 266.816 496.377 266.767 496.445Z" fill="#263238"/>
<path d="M265.238 494.258C265.238 494.258 265.323 494.559 265.544 494.805C265.764 495.051 265.972 495.215 266.021 495.16C266.07 495.106 265.935 494.86 265.727 494.614C265.519 494.368 265.287 494.204 265.238 494.258Z" fill="#263238"/>
<path d="M263.023 493.233C263.023 493.315 263.317 493.315 263.623 493.438C263.929 493.561 264.161 493.753 264.21 493.698C264.259 493.643 264.1 493.315 263.708 493.165C263.317 493.014 262.999 493.165 263.023 493.233Z" fill="#263238"/>
<path d="M261.445 492.741C261.445 492.823 261.543 492.932 261.714 493.014C261.886 493.096 262.045 493.096 262.069 493.014C262.093 492.932 261.983 492.823 261.812 492.741C261.641 492.659 261.47 492.673 261.445 492.741Z" fill="#263238"/>
<path d="M281.57 478.239C278.091 478.551 274.598 478.633 271.11 478.485C267.618 478.575 264.124 478.42 260.65 478.021C264.129 477.708 267.622 477.626 271.11 477.775C274.602 477.684 278.096 477.84 281.57 478.239Z" fill="#455A64"/>
<path d="M281.57 479.715C278.091 480.036 274.598 480.118 271.11 479.961C267.618 480.043 264.126 479.893 260.65 479.51C264.128 479.181 267.622 479.094 271.11 479.251C274.602 479.177 278.095 479.332 281.57 479.715Z" fill="#455A64"/>
<path d="M338.459 142.387C330.649 139.404 323.057 135.749 315.753 131.453C301.182 121.885 293.792 121.27 289.4 120.997L288.776 112.646L263.916 111.156V121.38C259.833 121.686 255.794 122.511 251.878 123.84C242.017 127.817 234.04 133.913 229.489 147.076L219.959 170.735L246.788 178.621L251.327 167.564L251.878 196.54L252.172 227.977L314.737 231.941L312.474 200.326L311.055 167.892L329.308 173.769L338.459 142.387Z" fill="#33A9DC"/>
<path d="M324.647 171.992C324.986 170.404 325.419 168.842 325.944 167.318C326.837 164.27 327.987 160.402 329.259 156.124C330.532 151.846 331.706 147.8 332.673 144.957C333.125 143.59 333.517 142.387 333.798 141.608C333.916 141.184 334.085 140.779 334.3 140.406C333.993 142.008 333.584 143.584 333.076 145.121C332.196 148.169 331.07 152.051 329.834 156.343C328.599 160.634 327.302 164.666 326.335 167.482C325.858 168.849 325.454 170.038 325.112 170.803C325.011 171.224 324.855 171.624 324.647 171.992Z" fill="#263238"/>
<path d="M248.966 174.275C248.585 174.302 248.203 174.275 247.828 174.193C247.107 174.097 246.067 173.92 244.782 173.674C242.213 173.182 238.665 172.307 234.848 171.241C231.031 170.175 227.507 168.876 225.061 167.878C223.837 167.386 222.846 166.963 222.186 166.648C221.824 166.515 221.479 166.331 221.158 166.102C222.536 166.447 223.889 166.904 225.207 167.468C227.654 168.343 231.116 169.491 234.995 170.626C238.873 171.76 242.335 172.635 244.855 173.25C246.245 173.487 247.618 173.83 248.966 174.275Z" fill="#263238"/>
<path d="M279.796 229.726C279.625 229.726 279.026 205.876 278.451 176.421C277.876 146.966 277.558 123.115 277.729 123.115C277.9 123.115 278.512 146.953 279.087 176.421C279.662 205.889 279.98 229.713 279.796 229.726Z" fill="#263238"/>
<path d="M281.081 141.964C281.142 142.059 280.763 142.333 280.751 143.016C280.743 143.194 280.77 143.371 280.829 143.536C280.888 143.701 280.978 143.85 281.093 143.973C281.242 144.088 281.417 144.155 281.597 144.167C281.778 144.179 281.958 144.135 282.118 144.041C282.279 143.946 282.413 143.805 282.506 143.631C282.599 143.458 282.648 143.259 282.647 143.057C282.622 142.882 282.564 142.716 282.475 142.569C282.386 142.423 282.269 142.3 282.133 142.21C281.632 141.827 281.216 142.018 281.179 141.909C281.142 141.8 281.583 141.39 282.402 141.759C282.623 141.869 282.817 142.035 282.97 142.244C283.123 142.453 283.23 142.698 283.283 142.961C283.311 143.304 283.248 143.648 283.101 143.95C282.954 144.252 282.73 144.498 282.457 144.658C282.185 144.818 281.876 144.883 281.57 144.846C281.264 144.81 280.974 144.672 280.738 144.451C280.572 144.253 280.449 144.013 280.381 143.752C280.313 143.491 280.301 143.215 280.347 142.948C280.469 142.032 281.081 141.868 281.081 141.964Z" fill="#263238"/>
<path d="M282.292 171.077C282.353 171.172 281.974 171.446 281.962 172.129C281.952 172.306 281.976 172.483 282.034 172.648C282.091 172.813 282.179 172.962 282.292 173.086C282.438 173.209 282.614 173.281 282.797 173.294C282.98 173.306 283.162 173.257 283.32 173.154C283.487 173.072 283.627 172.935 283.723 172.762C283.819 172.589 283.866 172.387 283.858 172.184C283.833 172.007 283.774 171.839 283.685 171.691C283.596 171.542 283.48 171.417 283.344 171.323C282.843 170.94 282.414 171.131 282.39 171.022C282.366 170.913 282.781 170.503 283.552 170.872C283.775 170.978 283.971 171.143 284.125 171.353C284.278 171.562 284.384 171.81 284.433 172.074C284.465 172.417 284.404 172.762 284.259 173.065C284.114 173.369 283.891 173.616 283.618 173.777C283.346 173.937 283.036 174.003 282.73 173.965C282.424 173.927 282.135 173.787 281.901 173.564C281.731 173.368 281.607 173.129 281.539 172.867C281.47 172.605 281.46 172.328 281.509 172.061C281.693 171.159 282.292 170.981 282.292 171.077Z" fill="#263238"/>
<path d="M282.292 193.943C282.353 194.039 281.974 194.312 281.962 194.996C281.954 195.172 281.979 195.349 282.036 195.514C282.093 195.678 282.18 195.828 282.292 195.953C282.438 196.076 282.614 196.148 282.797 196.16C282.98 196.172 283.162 196.124 283.32 196.021C283.488 195.936 283.629 195.797 283.725 195.621C283.821 195.446 283.867 195.242 283.858 195.037C283.831 194.861 283.772 194.694 283.683 194.545C283.595 194.397 283.479 194.271 283.344 194.176C282.843 193.807 282.414 193.998 282.39 193.889C282.366 193.779 282.781 193.369 283.552 193.738C283.775 193.845 283.971 194.01 284.125 194.219C284.278 194.429 284.384 194.676 284.433 194.941C284.465 195.283 284.404 195.628 284.259 195.932C284.114 196.235 283.891 196.483 283.618 196.643C283.346 196.804 283.036 196.869 282.73 196.831C282.424 196.793 282.135 196.654 281.901 196.431C281.731 196.235 281.607 195.995 281.539 195.733C281.47 195.471 281.46 195.195 281.509 194.927C281.693 194.012 282.292 193.848 282.292 193.943Z" fill="#263238"/>
<path d="M283.516 214.213C283.516 214.309 283.185 214.582 283.173 215.266C283.171 215.622 283.294 215.966 283.516 216.222C283.666 216.334 283.843 216.394 284.023 216.394C284.204 216.394 284.381 216.334 284.531 216.222C284.699 216.142 284.84 216.005 284.937 215.832C285.033 215.658 285.079 215.456 285.069 215.252C285.046 215.076 284.99 214.909 284.903 214.76C284.816 214.611 284.702 214.485 284.568 214.391C284.066 214.008 283.638 214.199 283.601 214.09C283.565 213.981 284.005 213.571 284.825 213.94C285.085 214.063 285.309 214.267 285.47 214.527C285.631 214.787 285.722 215.093 285.733 215.409C285.744 215.725 285.675 216.038 285.533 216.311C285.391 216.585 285.182 216.808 284.931 216.954C284.68 217.1 284.397 217.163 284.115 217.136C283.833 217.11 283.564 216.994 283.339 216.803C283.113 216.611 282.941 216.352 282.843 216.056C282.744 215.76 282.723 215.438 282.782 215.129C282.916 214.281 283.516 214.117 283.516 214.213Z" fill="#263238"/>
<path d="M294.771 121.421L297.255 179.127H301.182L298.735 122.569L294.771 121.421Z" fill="#263238"/>
<path d="M297.377 183.897L301.267 231.531C302.53 231.505 303.787 231.35 305.023 231.066C304.901 230.82 301.414 183.897 301.414 183.897H297.377Z" fill="#263238"/>
<path d="M301.267 179.032C301.267 179.237 300.399 179.414 299.31 179.428C298.221 179.442 297.34 179.305 297.328 179.114C297.316 178.922 298.209 178.744 299.298 178.717C300.387 178.69 301.267 178.84 301.267 179.032Z" fill="#263238"/>
<path d="M301.267 183.706C301.267 183.911 300.436 184.116 299.408 184.171C298.38 184.225 297.524 184.171 297.524 183.911C297.524 183.651 298.344 183.515 299.371 183.46C300.399 183.405 301.267 183.515 301.267 183.706Z" fill="#263238"/>
<path d="M299.126 184.007C298.943 184.007 298.686 182.872 298.539 181.423C298.392 179.975 298.417 178.799 298.6 178.772C298.784 178.744 299.029 179.906 299.175 181.355C299.322 182.804 299.298 183.979 299.126 184.007Z" fill="#263238"/>
<path d="M300.276 184.075C300.093 184.075 299.836 183.05 299.701 181.724C299.567 180.398 299.579 179.319 299.701 179.291C299.824 179.264 300.142 180.316 300.276 181.642C300.411 182.968 300.448 184.048 300.276 184.075Z" fill="#263238"/>
<path d="M258.24 184.007L259.035 228.633C260.409 228.849 261.796 228.941 263.182 228.906C263.06 228.633 262.253 184.007 262.253 184.007H258.24Z" fill="#263238"/>
<path d="M257.298 121.913L257.848 179.127H261.788L261.237 121.284L257.298 121.913Z" fill="#263238"/>
<path d="M261.751 179.209C261.751 179.414 260.87 179.537 259.793 179.51C258.717 179.483 257.848 179.305 257.86 179.114C257.873 178.922 258.729 178.772 259.806 178.799C260.882 178.827 261.751 179.018 261.751 179.209Z" fill="#263238"/>
<path d="M262.412 184.02C262.412 184.212 261.518 184.567 260.32 184.581C259.121 184.594 258.191 184.28 258.227 184.089C258.264 183.897 259.182 183.897 260.307 183.87C261.433 183.843 262.375 183.829 262.412 184.02Z" fill="#263238"/>
<path d="M259.671 184.444C259.5 184.444 259.292 183.337 259.218 181.956C259.145 180.576 259.218 179.428 259.402 179.414C259.585 179.401 259.781 180.521 259.855 181.915C259.928 183.31 259.904 184.43 259.671 184.444Z" fill="#263238"/>
<path d="M260.895 184.444C260.711 184.444 260.515 183.337 260.442 181.956C260.368 180.576 260.442 179.428 260.625 179.414C260.809 179.401 261.005 180.521 261.078 181.915C261.151 183.31 261.029 184.43 260.895 184.444Z" fill="#263238"/>
<path d="M287.064 116.158C285.84 115.42 281.326 118.263 278.842 119.944C278.789 119.585 278.681 119.238 278.524 118.919H275.111C275.111 118.919 275.05 119.111 274.976 119.425C273.114 117.893 271.003 116.779 268.761 116.145C268.53 116.088 268.291 116.089 268.06 116.149C267.83 116.208 267.614 116.323 267.428 116.486C267.242 116.649 267.09 116.857 266.985 117.093C266.879 117.329 266.821 117.589 266.816 117.853C266.718 120.587 266.571 125.685 267.293 126.054C268.443 126.751 272.542 124.25 275.086 122.541C275.184 122.821 275.303 123.09 275.441 123.348L278.989 123.102C278.989 123.102 278.989 122.856 278.989 122.5C280.952 124.16 283.189 125.373 285.571 126.068C285.801 126.122 286.039 126.119 286.268 126.059C286.497 125.999 286.712 125.883 286.896 125.72C287.081 125.557 287.231 125.35 287.336 125.115C287.441 124.88 287.498 124.622 287.504 124.359C287.639 121.626 287.81 116.623 287.064 116.158Z" fill="#455A64"/>
<path d="M278.805 122.883C278.634 122.883 278.744 121.926 278.659 120.847C278.573 119.767 278.365 118.906 278.536 118.81C278.708 118.714 279.221 119.562 279.295 120.792C279.368 122.022 278.964 122.951 278.805 122.883Z" fill="#263238"/>
<path d="M284.14 119.357C284.14 119.548 283.124 120.054 281.778 120.505C280.973 120.876 280.103 121.035 279.234 120.97C279.172 120.778 280.237 120.259 281.595 119.821C282.953 119.384 284.029 119.124 284.14 119.357Z" fill="#263238"/>
<path d="M284.323 122.487C283.408 122.635 282.474 122.547 281.595 122.227C280.669 122.139 279.774 121.816 278.977 121.284C279.895 121.133 280.832 121.217 281.717 121.53C282.639 121.629 283.529 121.956 284.323 122.487Z" fill="#263238"/>
<path d="M275.196 122.924C275.037 122.924 274.695 122.213 274.646 121.175C274.597 120.136 274.829 119.316 274.988 119.343C275.147 119.37 275.221 120.163 275.282 121.12C275.343 122.077 275.38 122.883 275.196 122.924Z" fill="#263238"/>
<path d="M268.676 119.944C269.709 119.708 270.774 119.708 271.807 119.944C272.866 119.966 273.909 120.221 274.878 120.696C272.785 120.905 270.675 120.64 268.676 119.917V119.944Z" fill="#263238"/>
<path d="M270.021 123.033C270.021 122.842 271.049 122.241 272.468 121.667C273.289 121.226 274.187 120.993 275.098 120.983C275.172 121.175 274.083 121.776 272.652 122.35C271.22 122.924 270.07 123.225 270.021 123.033Z" fill="#263238"/>
<path d="M252.282 227.676L255.34 467.961L285.889 466.321L287.418 279.328L300.105 467.961H332.061L314.737 231.913L252.282 227.676Z" fill="#263238"/>
<path d="M254.582 466.813V472.772L286.232 471.884L286.648 464.667L254.582 466.813Z" fill="#455A64"/>
<path d="M299.824 466.813V472.772L332.404 471.419L331.902 464.667L299.824 466.813Z" fill="#455A64"/>
<path d="M282.635 257.199C282.937 257.139 283.232 257.043 283.516 256.912C283.873 256.693 284.18 256.384 284.411 256.009C284.643 255.634 284.793 255.204 284.849 254.753C284.929 253.34 284.855 251.922 284.629 250.529C284.458 248.889 284.286 247.126 284.103 245.281C283.748 241.549 283.454 238.173 283.283 235.713C283.121 234.395 283.068 233.064 283.124 231.736C283.434 233.024 283.635 234.342 283.724 235.672C284.017 238.105 284.372 241.481 284.727 245.24C284.898 247.085 285.057 248.848 285.204 250.488C285.425 251.938 285.454 253.416 285.29 254.876C285.203 255.387 285.005 255.867 284.713 256.273C284.42 256.678 284.043 256.996 283.613 257.199C282.99 257.404 282.622 257.227 282.635 257.199Z" fill="#455A64"/>
<path d="M279.466 231.134C279.466 231.134 280.004 231.394 280.616 232.214C280.999 232.736 281.195 233.399 281.167 234.073C281.137 234.488 280.996 234.883 280.763 235.207C280.636 235.404 280.468 235.564 280.275 235.673C280.081 235.782 279.867 235.838 279.65 235.836C279.251 235.8 278.875 235.616 278.58 235.314C278.285 235.012 278.089 234.609 278.022 234.169C277.91 233.514 278.01 232.835 278.304 232.255C278.769 231.312 279.197 230.888 279.258 230.888C279.319 230.888 279.038 231.503 278.72 232.405C278.537 232.894 278.494 233.433 278.597 233.95C278.647 234.233 278.776 234.491 278.965 234.687C279.154 234.884 279.393 235.008 279.65 235.043C280.151 235.043 280.518 234.469 280.579 233.909C280.626 233.384 280.51 232.858 280.249 232.419C279.796 231.681 279.38 231.216 279.466 231.134Z" fill="#455A64"/>
<path d="M270.119 465.774C269.948 465.774 269.789 415.886 269.789 354.379C269.789 292.873 269.911 242.971 270.095 242.971C270.278 242.971 270.413 292.832 270.425 354.379C270.437 415.927 270.29 465.774 270.119 465.774Z" fill="#455A64"/>
<path d="M315.422 467.141C315.391 466.956 315.37 466.769 315.361 466.58C315.361 466.184 315.288 465.637 315.239 464.954C315.141 463.464 315.006 461.359 314.823 458.653C314.48 453.186 314.003 445.217 313.392 435.417C312.168 415.817 310.627 388.782 308.853 358.876C307.079 328.97 305.794 301.921 304.999 282.335C304.595 272.535 304.314 264.566 304.155 259.099C304.081 256.365 304.032 254.261 303.983 252.784C303.983 252.087 303.983 251.541 303.983 251.144C303.97 250.958 303.97 250.77 303.983 250.584C303.997 250.766 303.997 250.949 303.983 251.131C303.983 251.541 304.045 252.087 304.081 252.771C304.142 254.261 304.24 256.379 304.375 259.085C304.62 264.553 304.974 272.521 305.415 282.321C306.332 301.907 307.752 328.97 309.452 358.862C311.153 388.754 312.694 415.763 313.808 435.404C314.321 445.176 314.75 453.09 315.031 458.639C315.166 461.373 315.263 463.478 315.325 464.954C315.325 465.651 315.325 466.198 315.386 466.594C315.413 466.775 315.426 466.958 315.422 467.141Z" fill="#455A64"/>
<path d="M36.3177 250.956L33 209.386H69.4546L66.1325 250.95L51.2052 255.573L36.3177 250.956Z" fill="#E44F26"/>
<path d="M51.2273 252.04L63.2903 248.304L66.1281 212.786H51.2273V252.04Z" fill="#F1662A"/>
<path d="M51.2273 228.203H45.1885L44.7721 222.982H51.2273V217.883H51.2111H39.7845L39.8937 219.252L41.0144 233.301H51.2273V228.203Z" fill="#EBEBEB"/>
<path d="M51.2273 241.443L51.2066 241.45L46.1245 239.918L45.7997 235.852H43.3295H41.2181L41.8575 243.855L51.2066 246.755L51.2273 246.748V241.443Z" fill="#EBEBEB"/>
<path d="M51.2111 228.203V233.301H56.8306L56.302 239.914L51.2111 241.448V246.753L60.5676 243.855L60.6355 242.994L61.7075 229.572L61.8197 228.203H60.5898H51.2111Z" fill="white"/>
<path d="M51.2111 217.883V221.05V222.97V222.982H62.2198H62.2346L62.3261 221.837L62.5343 219.252L62.6436 217.883H51.2111Z" fill="white"/>
<path d="M67.9242 177.45L65 140.794H97.1426L94.2145 177.444L81.0518 181.521L67.9242 177.45Z" fill="#1572B6"/>
<path d="M81.0713 178.406L91.7082 175.111L94.2106 143.792H81.0713V178.406Z" fill="#33A9DC"/>
<path d="M81.0713 157.072H86.3963L86.7634 152.468H81.0713V147.972H81.0856H91.1614L91.0651 149.178L90.0769 161.568H81.0713V157.072Z" fill="white"/>
<path d="M81.096 168.748L81.0778 168.753L76.5965 167.401L76.3101 163.815H74.1319H72.2701L72.8339 170.874L81.0765 173.431L81.096 173.425V168.748Z" fill="#EBEBEB"/>
<path d="M86.0538 161.377L85.5695 167.398L81.0817 168.751V173.428L89.3309 170.874L89.3921 170.115L90.0912 161.377H86.0538Z" fill="white"/>
<path d="M81.0856 147.972V150.765V152.457V152.468H71.3783H71.3652L71.2845 151.457L71.101 149.178L71.0046 147.972H81.0856Z" fill="#EBEBEB"/>
<path d="M81.0713 157.072V159.865V161.556V161.568H76.659H76.646L76.5652 160.557L76.383 158.278L76.2866 157.072H81.0713Z" fill="#EBEBEB"/>
<path d="M23 382.671H59.4546V423.399H23V382.671Z" fill="#F5DE19"/>
<path d="M47.4884 414.49C47.799 415.194 48.2816 415.787 48.8805 416.199C49.4794 416.61 50.1703 416.825 50.8735 416.817C52.2926 416.817 53.2 416.024 53.2 414.926C53.2 413.617 52.2678 413.148 50.7055 412.385L49.8488 411.975C47.3751 410.798 45.7347 409.324 45.7347 406.209C45.7347 403.339 47.6876 401.153 50.7511 401.153C51.7428 401.073 52.7336 401.321 53.6 401.866C54.4664 402.411 55.17 403.229 55.623 404.218L52.9449 406.13C52.7704 405.64 52.4667 405.221 52.074 404.928C51.6812 404.635 51.2181 404.482 50.7459 404.49C50.5398 404.467 50.3318 404.492 50.135 404.563C49.9381 404.635 49.7568 404.752 49.6026 404.906C49.4484 405.061 49.3247 405.249 49.2393 405.46C49.1539 405.671 49.1088 405.899 49.1067 406.13C49.1067 407.278 49.7434 407.743 51.2133 408.458L52.0699 408.868C54.9811 410.263 56.6268 411.684 56.6268 414.879C56.6268 418.325 54.2038 420.213 50.9503 420.213C49.6826 420.303 48.4186 419.982 47.3108 419.287C46.2031 418.593 45.2989 417.555 44.7074 416.299L47.4884 414.49ZM35.3867 414.821C35.9244 415.887 36.414 416.789 37.5909 416.789C38.7158 416.789 39.4267 416.298 39.4267 414.385V401.371H42.8521V414.436C42.8521 418.398 40.769 420.202 37.7368 420.202C36.6649 420.267 35.6005 419.969 34.6833 419.346C33.7661 418.722 33.0391 417.804 32.598 416.711L35.3867 414.821Z" fill="black"/>
<path d="M470.164 420.691C469.672 420.691 469.189 420.547 468.763 420.272L464.305 417.324C463.64 416.908 463.964 416.761 464.184 416.675C464.892 416.431 465.569 416.089 466.201 415.657C466.254 415.629 466.312 415.618 466.37 415.623C466.428 415.627 466.484 415.649 466.533 415.684L469.958 417.958C470.022 417.996 470.093 418.015 470.165 418.015C470.237 418.015 470.308 417.996 470.372 417.958L483.73 409.344C483.793 409.302 483.845 409.243 483.881 409.172C483.916 409.101 483.935 409.021 483.935 408.94V391.709C483.935 391.626 483.916 391.545 483.88 391.473C483.843 391.401 483.791 391.34 483.728 391.297L470.37 382.691C470.307 382.651 470.236 382.63 470.163 382.63C470.091 382.63 470.02 382.651 469.957 382.691L456.607 391.3C456.543 391.342 456.49 391.402 456.453 391.474C456.416 391.545 456.396 391.626 456.396 391.709V408.932C456.396 409.014 456.415 409.093 456.452 409.163C456.489 409.233 456.542 409.291 456.605 409.331L460.269 411.693C462.254 412.802 463.471 411.495 463.471 410.183V393.178C463.471 393.121 463.481 393.064 463.5 393.011C463.52 392.958 463.549 392.91 463.585 392.869C463.621 392.829 463.664 392.797 463.712 392.775C463.759 392.753 463.81 392.742 463.861 392.742H465.554C465.657 392.742 465.757 392.788 465.83 392.869C465.903 392.951 465.944 393.062 465.944 393.178V410.185C465.944 413.145 464.502 414.839 461.989 414.839C460.905 414.86 459.838 414.537 458.912 413.906L455.401 411.655C454.975 411.378 454.621 410.981 454.375 410.503C454.129 410.025 454 409.483 454 408.932V391.709C453.999 391.157 454.128 390.614 454.373 390.136C454.619 389.657 454.974 389.259 455.401 388.982L468.76 380.365C469.191 380.102 469.673 379.964 470.164 379.964C470.654 379.964 471.137 380.102 471.567 380.365L484.926 388.982C485.352 389.258 485.706 389.655 485.952 390.133C486.198 390.61 486.328 391.151 486.328 391.702V408.932C486.327 409.483 486.197 410.025 485.951 410.502C485.705 410.98 485.352 411.378 484.926 411.655L471.567 420.272C471.141 420.547 470.657 420.692 470.164 420.691Z" fill="#83CD29"/>
<path d="M467.63 403.168C467.63 403.052 467.671 402.941 467.745 402.859C467.818 402.778 467.917 402.732 468.021 402.732H469.749C469.841 402.732 469.93 402.769 470 402.836C470.071 402.902 470.118 402.995 470.133 403.097C470.393 405.062 471.174 406.052 474.707 406.052C477.52 406.052 478.719 405.341 478.719 403.673C478.719 402.711 478.379 401.997 474.006 401.518C470.35 401.114 468.09 400.209 468.09 396.945C468.09 393.934 470.362 392.138 474.17 392.138C478.45 392.138 480.568 393.798 480.836 397.358C480.84 397.418 480.833 397.478 480.816 397.534C480.799 397.59 480.771 397.642 480.735 397.686C480.699 397.73 480.655 397.766 480.607 397.79C480.558 397.814 480.505 397.827 480.452 397.828H478.713C478.625 397.827 478.541 397.793 478.473 397.732C478.405 397.671 478.357 397.586 478.338 397.491C477.922 395.424 476.906 394.763 474.171 394.763C471.099 394.763 470.742 395.959 470.742 396.855C470.742 397.94 471.164 398.257 475.312 398.87C479.417 399.476 481.367 400.334 481.367 403.558C481.367 406.81 478.941 408.672 474.708 408.672C468.855 408.681 467.63 405.683 467.63 403.168Z" fill="#83CD29"/>
<path d="M162.484 102.929C164.504 102.929 166.142 101.099 166.142 98.8424C166.142 96.5855 164.504 94.7558 162.484 94.7558C160.464 94.7558 158.826 96.5855 158.826 98.8424C158.826 101.099 160.464 102.929 162.484 102.929Z" fill="#00D8FF"/>
<path d="M162.484 108.212C158.088 108.331 153.702 107.669 149.491 106.251C147.546 105.562 145.732 104.477 144.141 103.05C143.533 102.563 143.028 101.934 142.658 101.208C142.289 100.482 142.064 99.6747 142 98.8424C142 96.1403 144.657 93.4922 149.108 91.7595C153.431 90.2242 157.948 89.4801 162.484 89.556C166.959 89.4862 171.416 90.2168 175.685 91.7203C177.558 92.3875 179.311 93.4202 180.861 94.7705C181.458 95.2351 181.956 95.8407 182.321 96.5444C182.685 97.2481 182.906 98.0326 182.968 98.8424C182.968 101.651 179.998 104.497 175.214 106.265C171.084 107.637 166.791 108.294 162.484 108.212ZM162.484 91.5111C158.145 91.4462 153.823 92.1536 149.683 93.6067C145.586 95.2037 143.75 97.3876 143.75 98.8375C143.75 100.354 145.724 102.739 150.058 104.395C154.086 105.745 158.28 106.374 162.484 106.257C166.605 106.339 170.713 105.716 174.665 104.41C179.164 102.744 181.212 100.356 181.212 98.8424C181.139 98.3229 180.969 97.8262 180.715 97.3837C180.46 96.9411 180.127 96.5623 179.735 96.2711C178.347 95.0732 176.782 94.1579 175.11 93.5674C171.026 92.1351 166.764 91.4409 162.484 91.5111Z" fill="#00D8FF"/>
<path d="M154.173 119.225C153.491 119.242 152.816 119.057 152.219 118.688C150.123 117.338 149.398 113.445 150.277 108.271C151.247 103.32 152.927 98.5764 155.252 94.2246C157.433 89.8586 160.225 85.9107 163.523 82.5304C164.976 81.0506 166.652 79.8701 168.474 79.0437C169.133 78.6987 169.852 78.5199 170.58 78.5199C171.307 78.5199 172.026 78.6987 172.685 79.0437C174.864 80.4462 175.585 84.7421 174.568 90.2557C173.569 94.9382 171.933 99.4218 169.717 103.55C167.612 107.865 164.908 111.778 161.704 115.145C160.198 116.682 158.451 117.896 156.55 118.723C155.789 119.038 154.985 119.208 154.173 119.225ZM156.768 95.1955C154.55 99.3628 152.94 103.898 151.998 108.631C151.189 113.396 151.966 116.261 153.095 116.99C154.266 117.747 157.107 117.029 160.557 113.662C163.615 110.437 166.197 106.691 168.205 102.563C170.328 98.616 171.898 94.3294 172.859 89.8519C173.816 84.662 172.99 81.4842 171.816 80.729C171.376 80.5408 170.906 80.4565 170.436 80.4815C169.965 80.5066 169.505 80.6404 169.083 80.8745C167.461 81.6221 165.97 82.6834 164.679 84.0097C161.528 87.2476 158.861 91.0271 156.778 95.2053L156.768 95.1955Z" fill="#00D8FF"/>
<path d="M170.79 119.246C168.808 119.246 166.29 117.905 163.668 115.387C160.312 111.975 157.473 107.981 155.259 103.557C152.963 99.2647 151.296 94.59 150.322 89.7097C149.9 87.5626 149.822 85.3488 150.091 83.1711C150.154 82.3633 150.374 81.5806 150.736 80.8782C151.099 80.1758 151.595 79.5708 152.189 79.1058C154.365 77.6984 158.057 79.145 161.824 82.8818C164.956 86.1874 167.616 90.01 169.711 94.2164C172.005 98.4081 173.689 102.981 174.7 107.763C175.141 109.988 175.209 112.286 174.9 114.54C174.827 115.371 174.594 116.174 174.217 116.895C173.839 117.616 173.327 118.237 172.714 118.716C172.127 119.08 171.462 119.263 170.79 119.246ZM156.773 102.573C158.897 106.8 161.61 110.624 164.809 113.899C168.1 117.062 170.71 117.742 171.832 117.005C173.003 116.245 173.866 113.142 172.976 108.122C172.002 103.557 170.386 99.192 168.19 95.1906C166.191 91.1647 163.653 87.5043 160.662 84.3366C157.116 80.8189 154.239 80.0327 153.067 80.7911C152.702 81.1228 152.402 81.5354 152.187 82.003C151.972 82.4706 151.845 82.983 151.816 83.5079C151.584 85.45 151.659 87.4227 152.04 89.3354C152.977 94.0025 154.575 98.4723 156.775 102.576L156.773 102.573Z" fill="#00D8FF"/>
<path d="M472 488.541C485.807 488.541 497 483.227 497 476.671C497 470.116 485.807 464.801 472 464.801C458.193 464.801 447 470.116 447 476.671C447 483.227 458.193 488.541 472 488.541Z" fill="url(#paint0_radial_1_3152)"/>
<path d="M472 487.66C485.268 487.66 496.023 482.74 496.023 476.671C496.023 470.603 485.268 465.683 472 465.683C458.732 465.683 447.977 470.603 447.977 476.671C447.977 482.74 458.732 487.66 472 487.66Z" fill="#6280B6"/>
<path d="M476.866 480.217L478.057 474.683C478.227 474.209 478.255 473.703 478.138 473.217C478.021 472.73 477.764 472.28 477.393 471.912C476.356 471.248 475.086 470.947 473.821 471.066H471.763L472.354 468.326C472.364 468.275 472.363 468.223 472.348 468.172C472.334 468.122 472.307 468.075 472.271 468.035C472.234 467.995 472.188 467.963 472.136 467.941C472.084 467.919 472.027 467.907 471.97 467.907H469.113C469.022 467.907 468.934 467.936 468.864 467.988C468.794 468.04 468.746 468.112 468.729 468.192L467.463 474.068C467.365 473.44 467.069 472.851 466.611 472.37C466.1 471.908 465.484 471.553 464.806 471.328C464.127 471.103 463.402 471.015 462.682 471.069H457.179C457.088 471.069 457 471.098 456.93 471.15C456.86 471.202 456.812 471.274 456.795 471.354L454.234 483.248C454.223 483.299 454.225 483.352 454.239 483.402C454.254 483.453 454.28 483.499 454.317 483.539C454.353 483.579 454.399 483.612 454.451 483.634C454.504 483.656 454.56 483.667 454.618 483.667H457.48C457.571 483.668 457.659 483.639 457.729 483.587C457.799 483.535 457.847 483.463 457.864 483.382L458.484 480.505H460.627C461.573 480.528 462.517 480.42 463.427 480.183C464.194 479.954 464.895 479.575 465.48 479.073C465.96 478.678 466.37 478.219 466.695 477.712L466.182 480.09C466.171 480.141 466.173 480.193 466.188 480.243C466.202 480.294 466.228 480.341 466.265 480.381C466.302 480.421 466.348 480.453 466.4 480.475C466.452 480.497 466.509 480.509 466.566 480.509H469.423C469.514 480.509 469.602 480.48 469.672 480.428C469.742 480.376 469.79 480.304 469.807 480.223L471.213 473.695H473.166C473.998 473.695 474.238 473.844 474.309 473.909C474.38 473.973 474.488 474.175 474.354 474.826L473.22 480.088C473.209 480.139 473.211 480.192 473.225 480.242C473.239 480.292 473.266 480.339 473.302 480.379C473.339 480.419 473.385 480.451 473.437 480.473C473.489 480.496 473.546 480.507 473.604 480.507H476.496C476.585 480.504 476.671 480.473 476.738 480.421C476.805 480.368 476.85 480.296 476.866 480.217ZM463.661 475.649C463.573 476.326 463.218 476.951 462.659 477.409C461.957 477.803 461.135 477.985 460.311 477.927H459.039L459.959 473.654H461.604C462.813 473.654 463.298 473.888 463.495 474.083C463.645 474.318 463.737 474.58 463.765 474.85C463.794 475.12 463.758 475.393 463.661 475.649Z" fill="white"/>
<path d="M489.046 472.371C488.536 471.91 487.92 471.554 487.241 471.33C486.563 471.105 485.838 471.017 485.118 471.071H479.598C479.507 471.071 479.42 471.099 479.35 471.151C479.28 471.203 479.232 471.276 479.214 471.356L476.654 483.25C476.643 483.301 476.645 483.354 476.659 483.404C476.673 483.454 476.7 483.501 476.736 483.541C476.773 483.581 476.819 483.613 476.871 483.635C476.923 483.658 476.98 483.669 477.038 483.669H479.909C480 483.669 480.088 483.641 480.158 483.589C480.228 483.537 480.275 483.464 480.293 483.384L480.913 480.507H483.055C484.001 480.53 484.946 480.421 485.855 480.185C486.622 479.956 487.323 479.577 487.909 479.074C488.912 478.259 489.587 477.167 489.83 475.969C490.022 475.356 490.052 474.71 489.915 474.085C489.779 473.46 489.481 472.873 489.046 472.371ZM486.07 475.649C485.982 476.326 485.626 476.951 485.068 477.409C484.365 477.804 483.54 477.984 482.714 477.925H481.446L482.366 473.653H484.011C485.22 473.653 485.705 473.886 485.902 474.081C486.052 474.317 486.145 474.579 486.174 474.849C486.203 475.119 486.167 475.392 486.07 475.649Z" fill="white"/>
<path d="M461.604 473.3C461.989 473.256 462.38 473.282 462.754 473.375C463.128 473.469 463.478 473.628 463.784 473.844C463.981 474.118 464.107 474.429 464.152 474.753C464.196 475.077 464.159 475.406 464.043 475.716C463.941 476.477 463.533 477.178 462.896 477.687C462.129 478.133 461.221 478.342 460.311 478.283H458.564L459.636 473.305L461.604 473.3ZM454.609 483.318H457.48L458.161 480.156H460.62C461.525 480.178 462.428 480.074 463.298 479.848C464.012 479.635 464.665 479.282 465.209 478.813C466.151 478.049 466.785 477.024 467.013 475.899C467.193 475.34 467.224 474.75 467.105 474.178C466.985 473.606 466.718 473.067 466.325 472.605C465.851 472.182 465.28 471.857 464.652 471.653C464.025 471.449 463.355 471.372 462.691 471.425H457.179L454.609 483.318Z" fill="#000004"/>
<path d="M469.12 468.262H471.977L471.286 471.424H473.823C474.989 471.314 476.16 471.581 477.127 472.178C477.447 472.506 477.666 472.905 477.761 473.334C477.857 473.763 477.826 474.207 477.671 474.621L476.48 480.156H473.589L474.723 474.894C474.802 474.693 474.83 474.479 474.806 474.267C474.781 474.055 474.704 473.85 474.58 473.669C474.167 473.401 473.656 473.286 473.152 473.346H470.875L469.407 480.161H466.55L469.12 468.262Z" fill="#000004"/>
<path d="M484.013 473.3C484.398 473.256 484.789 473.282 485.163 473.375C485.537 473.469 485.887 473.628 486.193 473.844C486.39 474.118 486.516 474.429 486.561 474.753C486.605 475.077 486.568 475.406 486.452 475.716C486.35 476.477 485.942 477.178 485.305 477.687C484.536 478.134 483.627 478.343 482.714 478.283H480.968L482.039 473.305L484.013 473.3ZM477.018 483.318H479.889L480.57 480.156H483.029C483.934 480.178 484.837 480.074 485.707 479.848C486.421 479.635 487.074 479.282 487.618 478.813C488.56 478.049 489.194 477.024 489.421 475.899C489.602 475.34 489.633 474.75 489.514 474.178C489.394 473.606 489.127 473.067 488.734 472.605C488.26 472.182 487.689 471.857 487.061 471.653C486.434 471.449 485.764 471.372 485.1 471.425H479.579L477.018 483.318Z" fill="#000004"/>
<path fill-rule="evenodd" clip-rule="evenodd" d="M385.109 96.8302C384.628 96.8288 384.148 96.8839 383.682 96.9942V97.0516H383.752C384.085 97.5061 384.457 97.9366 384.864 98.3394C385.144 98.8414 385.387 99.3418 385.666 99.8438C385.7 99.8126 385.735 99.7798 385.735 99.7798C385.993 99.5948 386.195 99.3538 386.322 99.0793C386.449 98.8048 386.497 98.5056 386.462 98.2098C386.31 97.998 386.17 97.7789 386.044 97.5536C385.835 97.2403 385.382 97.0828 385.104 96.8318" fill="#5D87A1"/>
<path fill-rule="evenodd" clip-rule="evenodd" d="M419.636 124.207C417.343 124.062 415.043 124.361 412.889 125.086C412.367 125.275 411.535 125.275 411.462 125.87C411.742 126.121 411.775 126.527 412.02 126.876C412.496 127.604 413.108 128.251 413.829 128.791C414.556 129.293 415.283 129.793 416.055 130.233C417.41 130.989 418.942 131.427 420.262 132.18C421.029 132.619 421.792 133.184 422.559 133.656C422.941 133.907 423.183 134.312 423.67 134.477V134.381C423.527 134.033 423.35 133.696 423.141 133.376C422.794 133.064 422.445 132.78 422.096 132.467C421.076 131.25 419.856 130.181 418.478 129.297C417.364 128.605 414.928 127.657 414.479 126.509L414.409 126.445C415.224 126.34 416.027 126.171 416.81 125.939C417.991 125.657 419.069 125.721 420.285 125.447C420.843 125.321 421.852 125.008 421.852 125.008V124.515C421.23 123.958 420.785 123.211 420.131 122.685C418.35 121.282 416.453 120.005 414.456 118.865C413.389 118.244 412.013 117.843 410.877 117.314C410.466 117.127 409.786 117.035 409.537 116.723C408.972 115.975 408.499 115.173 408.127 114.333C407.131 112.627 406.165 110.735 405.307 108.931C404.8 107.721 404.214 106.54 403.553 105.392C400.366 100.501 395.765 96.4837 390.243 93.7706C388.849 93.1619 387.368 92.7334 385.842 92.4976C384.98 92.4648 384.122 92.4041 383.263 92.3745C382.708 92.0464 382.18 91.6823 381.683 91.2853C379.716 90.1615 374.663 87.7467 373.216 90.944C372.289 92.9635 374.594 94.9485 375.385 95.9738C376.051 96.6968 376.639 97.4764 377.139 98.3017C377.381 98.8299 377.45 99.3894 377.684 99.9422C378.189 101.361 378.788 102.752 379.478 104.106C379.847 104.775 380.273 105.418 380.751 106.028C381.029 106.371 381.509 106.521 381.612 107.087C381.231 107.826 380.964 108.609 380.82 109.415C380.219 111.127 379.998 112.93 380.169 114.719C380.34 116.509 380.9 118.251 381.818 119.845C382.363 120.621 383.675 122.329 385.429 121.676C386.976 121.118 386.633 119.348 387.08 117.797C387.182 117.422 387.114 117.176 387.32 116.928V117.23C387.32 117.23 388.198 118.97 388.634 119.855C389.82 121.477 391.294 122.913 392.996 124.104C393.67 124.634 394.212 125.286 394.589 126.018V126.581H395.365C395.349 126.327 395.271 126.08 395.136 125.856C395.002 125.633 394.815 125.439 394.589 125.288C393.952 124.697 393.369 124.06 392.845 123.385C391.423 121.556 390.168 119.625 389.094 117.612C388.548 116.628 388.089 115.548 387.652 114.566C387.452 114.187 387.452 113.614 387.116 113.417C386.495 114.08 385.956 114.803 385.509 115.571C384.966 117.125 384.651 118.736 384.57 120.363C384.437 120.396 384.502 120.363 384.437 120.426C383.366 120.171 382.997 119.126 382.594 118.24C381.551 115.508 381.446 112.556 382.292 109.769C382.525 109.104 383.533 107.011 383.13 106.376C382.928 105.771 382.257 105.425 381.89 104.947C381.422 104.305 381.018 103.626 380.685 102.918C379.887 101.153 379.484 99.1843 378.615 97.406C378.134 96.5507 377.574 95.7336 376.941 94.9633C376.24 94.1938 375.623 93.366 375.096 92.491C374.929 92.1416 374.694 91.5707 374.961 91.1901C374.979 91.0844 375.035 90.9868 375.12 90.9122C375.205 90.8377 375.314 90.7901 375.432 90.7767C375.865 90.4289 377.106 90.8718 377.541 91.0621C378.708 91.477 379.82 92.0091 380.856 92.6485C381.325 92.9668 382.43 93.7723 382.43 93.7723H382.757C383.87 93.9904 385.12 93.833 386.167 94.1168C387.93 94.6471 389.612 95.3746 391.175 96.2822C395.78 98.9319 399.524 102.637 402.025 107.019C402.443 107.74 402.619 108.401 403.001 109.152C403.728 110.694 404.637 112.269 405.364 113.768C406.005 115.252 406.835 116.663 407.836 117.975C408.356 118.631 410.444 118.979 411.384 119.323C412.2 119.578 413.001 119.871 413.783 120.201C414.967 120.857 416.146 121.613 417.261 122.334C417.815 122.711 419.554 123.495 419.66 124.123" fill="#00758F"/>
<path d="M66.6571 446.751H21.3429C20.0489 446.751 19 447.698 19 448.865V489.763C19 490.931 20.0489 491.877 21.3429 491.877H66.6571C67.9511 491.877 69 490.931 69 489.763V448.865C69 447.698 67.9511 446.751 66.6571 446.751Z" fill="#3178C6"/>
<path fill-rule="evenodd" clip-rule="evenodd" d="M48.009 481.819V486.763C49.0044 487.207 50.0652 487.519 51.159 487.69C52.4229 487.901 53.7058 488.004 54.9911 488C56.2438 488.005 57.4935 487.891 58.7197 487.66C59.8205 487.459 60.8709 487.076 61.8179 486.531C62.697 486.019 63.4217 485.318 63.9268 484.491C64.8315 482.778 64.9508 480.813 64.259 479.021C63.967 478.351 63.5319 477.739 62.9786 477.221C62.3846 476.669 61.7099 476.194 60.9732 475.807C60.1251 475.359 59.2439 474.964 58.3357 474.624C57.6215 474.357 56.9786 474.097 56.4072 473.844C55.8996 473.625 55.4139 473.367 54.9554 473.072C54.5962 472.845 54.2843 472.563 54.034 472.238C53.8176 471.943 53.705 471.595 53.7107 471.242C53.706 470.916 53.8065 470.596 54 470.321C54.2102 470.034 54.4906 469.793 54.8197 469.619C55.2219 469.405 55.6597 469.251 56.1161 469.163C56.6765 469.05 57.2492 468.996 57.8232 469.001C58.306 469.003 58.7881 469.034 59.2661 469.095C59.7823 469.158 60.2931 469.253 60.7947 469.38C61.3049 469.508 61.8038 469.669 62.2875 469.864C62.7569 470.052 63.2058 470.28 63.6286 470.544V465.93C62.7484 465.629 61.8357 465.413 60.9054 465.285C59.782 465.137 58.6477 465.068 57.5125 465.077C56.2717 465.071 55.0344 465.198 53.8268 465.456C52.7353 465.681 51.6974 466.081 50.7625 466.637C49.8941 467.159 49.177 467.862 48.6715 468.686C48.1357 469.6 47.8706 470.625 47.9018 471.659C47.8622 473.027 48.3615 474.363 49.3107 475.43C50.4754 476.613 51.9439 477.52 53.5875 478.072C54.3375 478.351 55.0369 478.625 55.6857 478.892C56.2711 479.127 56.8338 479.406 57.3679 479.725C57.7987 479.978 58.177 480.297 58.4857 480.668C58.7572 481.005 58.9012 481.411 58.8965 481.827C58.8989 482.139 58.8102 482.446 58.6393 482.717C58.4494 483.008 58.1825 483.252 57.8625 483.427C57.4621 483.648 57.024 483.807 56.5661 483.898C55.9696 484.018 55.3594 484.075 54.7482 484.067C53.5488 484.065 52.3589 483.874 51.2322 483.503C50.055 483.12 48.9634 482.549 48.009 481.819ZM38.8054 469.509H45.9482V465.436H26.0322V469.509H33.1429V487.647H38.8054V469.509Z" fill="white"/>
<path d="M36.5 304.152C38.1667 298.135 42.3333 295.126 49 295.126C59 295.126 60.25 301.895 65.25 303.023C68.5833 303.776 71.5 302.647 74 299.639C72.3333 305.656 68.1667 308.664 61.5 308.664C51.5 308.664 50.25 301.895 45.25 300.767C41.9167 300.015 39 301.143 36.5 304.152ZM24 317.69C25.6667 311.673 29.8333 308.664 36.5 308.664C46.5 308.664 47.75 315.433 52.75 316.561C56.0833 317.313 59 316.185 61.5 313.177C59.8333 319.194 55.6667 322.202 49 322.202C39 322.202 37.75 315.433 32.75 314.305C29.4167 313.553 26.5 314.681 24 317.69Z" fill="#44A8B3"/>
<path d="M489.054 297.629L467.226 277.929C466.928 277.659 466.573 277.444 466.182 277.298C465.792 277.151 465.373 277.076 464.95 277.076C464.527 277.076 464.108 277.151 463.718 277.298C463.327 277.444 462.972 277.659 462.674 277.929L458.14 282.02L463.889 287.209C464.567 287.001 465.297 286.969 465.994 287.116C466.691 287.264 467.328 287.585 467.833 288.044C468.338 288.502 468.69 289.08 468.848 289.71C469.007 290.34 468.967 290.998 468.732 291.608L474.267 296.604C475.094 296.347 475.994 296.354 476.816 296.624C477.638 296.893 478.333 297.409 478.785 298.085C479.237 298.761 479.419 299.556 479.301 300.339C479.182 301.121 478.77 301.843 478.133 302.384C477.496 302.925 476.673 303.253 475.8 303.313C474.928 303.373 474.059 303.162 473.339 302.714C472.619 302.266 472.09 301.609 471.841 300.852C471.593 300.095 471.639 299.284 471.972 298.554L466.803 293.889V306.163C467.586 306.513 468.213 307.095 468.578 307.811C468.944 308.527 469.026 309.335 468.812 310.1C468.598 310.864 468.1 311.54 467.401 312.013C466.703 312.487 465.845 312.73 464.972 312.702C464.099 312.675 463.262 312.378 462.602 311.861C461.942 311.344 461.498 310.639 461.343 309.863C461.189 309.087 461.335 308.286 461.755 307.595C462.175 306.903 462.845 306.363 463.654 306.063V293.676C463.186 293.503 462.761 293.248 462.403 292.926C462.045 292.604 461.761 292.221 461.568 291.799C461.375 291.378 461.276 290.926 461.277 290.47C461.278 290.014 461.379 289.562 461.574 289.141L455.914 284.03L440.946 297.543C440.646 297.813 440.408 298.133 440.246 298.486C440.084 298.839 440 299.217 440 299.599C440 299.981 440.084 300.359 440.246 300.712C440.408 301.064 440.646 301.385 440.946 301.654L462.774 321.347C463.072 321.618 463.427 321.832 463.818 321.979C464.208 322.125 464.627 322.201 465.05 322.201C465.473 322.201 465.892 322.125 466.282 321.979C466.673 321.832 467.028 321.618 467.326 321.347L489.054 301.733C489.354 301.464 489.592 301.143 489.754 300.791C489.916 300.438 490 300.06 490 299.678C490 299.296 489.916 298.918 489.754 298.565C489.592 298.212 489.354 297.892 489.054 297.622" fill="#DD4C35"/>
<path d="M458.14 282.02L463.889 287.209C464.567 287.001 465.297 286.969 465.994 287.116C466.691 287.264 467.328 287.585 467.833 288.044C468.338 288.502 468.69 289.08 468.848 289.71C469.007 290.34 468.967 290.998 468.732 291.608L474.267 296.604C475.094 296.347 475.994 296.354 476.816 296.624C477.638 296.893 478.333 297.409 478.785 298.085C479.238 298.761 479.419 299.556 479.301 300.339C479.182 301.121 478.77 301.843 478.133 302.384C477.496 302.925 476.673 303.253 475.8 303.313C474.928 303.373 474.059 303.162 473.339 302.714C472.619 302.266 472.09 301.609 471.841 300.852C471.593 300.095 471.639 299.284 471.972 298.554L466.803 293.889V306.163C467.586 306.513 468.213 307.095 468.578 307.811C468.944 308.527 469.026 309.335 468.812 310.1C468.598 310.864 468.1 311.54 467.401 312.013C466.703 312.487 465.845 312.73 464.972 312.702C464.099 312.675 463.262 312.378 462.602 311.861C461.942 311.344 461.498 310.639 461.343 309.863C461.189 309.087 461.335 308.286 461.755 307.595C462.175 306.903 462.845 306.363 463.654 306.063V293.676C463.186 293.503 462.761 293.248 462.403 292.926C462.045 292.604 461.761 292.221 461.568 291.799C461.375 291.378 461.276 290.926 461.277 290.47C461.278 290.014 461.379 289.562 461.574 289.141L455.914 284.03" fill="white"/>
<path d="M461.294 170.578H443.059L438.941 178.01H416V207.74H465.412V170.578H461.294ZM461.294 178.01H445.216L447.373 174.294H461.294V178.01Z" fill="black"/>
<path fill-rule="evenodd" clip-rule="evenodd" d="M468.157 197.123C468.157 200.798 466.949 204.39 464.687 207.446C462.425 210.502 459.209 212.883 455.447 214.29C451.685 215.696 447.546 216.064 443.552 215.347C439.558 214.63 435.89 212.86 433.011 210.262C430.131 207.663 428.17 204.352 427.376 200.748C426.582 197.143 426.989 193.407 428.548 190.012C430.106 186.616 432.745 183.714 436.13 181.673C439.516 179.631 443.497 178.541 447.569 178.541C453.029 178.541 458.266 180.499 462.127 183.983C465.988 187.468 468.157 192.194 468.157 197.123Z" fill="white"/>
<path fill-rule="evenodd" clip-rule="evenodd" d="M452.496 209.687C452.548 209.057 452.45 208.424 452.209 207.831C451.968 207.237 451.589 206.697 451.098 206.247C455.684 205.787 460.498 204.215 460.498 197.078C460.531 195.232 459.773 193.446 458.382 192.091C459.01 190.488 458.937 188.729 458.176 187.173C458.176 187.173 456.451 186.674 452.522 189.079C449.147 188.244 445.586 188.244 442.212 189.079C438.28 186.674 436.551 187.173 436.551 187.173C435.795 188.731 435.725 190.489 436.355 192.091C434.966 193.444 434.207 195.226 434.235 197.069C434.235 204.189 439.041 205.783 443.614 206.252C442.866 206.912 442.402 207.79 442.306 208.73C441.801 208.986 441.245 209.15 440.669 209.211C440.094 209.272 439.511 209.23 438.953 209.086C438.396 208.942 437.876 208.7 437.423 208.374C436.971 208.048 436.594 207.643 436.316 207.185C435.986 206.67 435.53 206.23 434.983 205.898C434.437 205.567 433.813 205.352 433.161 205.27C433.161 205.27 431.151 205.247 433.02 206.401C434.116 207.031 434.927 207.995 435.306 209.117C435.306 209.117 436.514 212.733 442.241 211.609C442.241 213.159 442.269 214.329 442.269 214.77C442.265 214.876 442.244 214.982 442.206 215.083C445.591 215.902 449.154 215.902 452.539 215.083C452.5 214.984 452.477 214.881 452.471 214.777C452.471 214.168 452.496 212.165 452.496 209.687Z" fill="#333333"/>
<path fill-rule="evenodd" clip-rule="evenodd" d="M271.977 35.7935L249.711 41.7844C249.556 41.8269 249.392 41.8323 249.233 41.8001C249.075 41.768 248.929 41.6994 248.809 41.601C248.689 41.5026 248.6 41.3778 248.549 41.2388C248.498 41.0998 248.489 40.9514 248.521 40.808L256.476 6.14654C256.51 6.00496 256.592 5.87644 256.71 5.77906C256.829 5.68167 256.979 5.62031 257.138 5.6036C257.298 5.58689 257.459 5.61566 257.599 5.68588C257.739 5.7561 257.852 5.86423 257.92 5.99508L272.648 34.4529C272.714 34.5794 272.749 34.7174 272.75 34.8572C272.751 34.9971 272.719 35.1355 272.655 35.263C272.591 35.3904 272.497 35.5038 272.38 35.5954C272.263 35.687 272.125 35.7546 271.977 35.7935ZM275.795 34.3787L258.747 1.42856C258.538 1.02214 258.209 0.674942 257.797 0.424262C257.386 0.173581 256.906 0.0288939 256.41 0.00574682C255.914 -0.0250456 255.418 0.0683319 254.977 0.275593C254.536 0.482854 254.167 0.795957 253.911 1.18041L235.423 28.4426C235.141 28.8552 234.994 29.3316 235 29.8164C235.006 30.3012 235.164 30.7747 235.455 31.1819L244.496 43.9259C244.837 44.4022 245.339 44.766 245.928 44.963C246.517 45.1599 247.161 45.1793 247.764 45.0184L274.008 37.9559C274.405 37.8517 274.771 37.6712 275.083 37.4268C275.395 37.1824 275.644 36.88 275.814 36.5403C275.983 36.2006 276.069 35.8318 276.066 35.4592C276.063 35.0866 275.97 34.719 275.794 34.382L275.795 34.3787Z" fill="#0CAB55"/>
<defs>
<radialGradient id="paint0_radial_1_3152" cx="0" cy="0" r="1" gradientUnits="userSpaceOnUse" gradientTransform="translate(462.011 468.976) scale(32.8286 29.6287)">
<stop stop-color="white"/>
<stop offset="0.5" stop-color="#4C6B96"/>
<stop offset="1" stop-color="#231F20"/>
</radialGradient>
</defs>
</svg>
